<?xml version="1.0" encoding="UTF-8"?><svg id="Ebene_2" xmlns="http://www.w3.org/2000/svg" viewBox="0 0 3280 480"><defs><style>.cls-1{fill:#fff;}.cls-2{fill:#4691b4;}</style></defs><g id="kk"><rect class="cls-1" width="160" height="320"/><polygon class="cls-1" points="520 160 320 160 160 320 320 480 520 480 360 320 520 160"/><polygon class="cls-1" points="720 160 520 160 680 320 880 320 720 160"/></g><g id="K_K_Akademie"><path class="cls-1" d="m1217.48,230.75h14.25c2.15,0,4.01-.08,5.6-.25,1.58-.17,3.03-.48,4.33-.93,1.3-.45,2.49-1.1,3.56-1.95,1.07-.85,2.23-1.89,3.48-3.14l96.89-99.55c1.7-1.92,3.37-3.22,5.01-3.9,1.64-.68,3.59-1.02,5.85-1.02h13.91l-104.87,107.7c-2.15,2.26-4.05,4.01-5.68,5.26-1.64,1.25-3.48,2.26-5.51,3.05,2.37.68,4.52,1.72,6.45,3.14,1.92,1.42,3.85,3.25,5.77,5.51l110.47,115.33h-14.08c-2.94,0-5.07-.37-6.36-1.1-1.3-.73-2.57-1.89-3.82-3.48l-101.48-103.79c-1.25-1.24-2.41-2.32-3.48-3.22-1.07-.9-2.26-1.67-3.56-2.29-1.3-.62-2.83-1.07-4.58-1.36-1.75-.28-3.99-.42-6.7-.42h-15.44v115.67h-17.48V120h17.48v110.75Z"/><path class="cls-1" d="m1600.4,359.98h-15.1c-2.04,0-3.71-.23-5-.68-1.3-.45-2.8-1.47-4.5-3.05l-34.79-34.09c-4.98,5.88-10.52,11.28-16.63,16.2s-12.73,9.19-19.85,12.8c-7.13,3.62-14.76,6.45-22.91,8.48s-16.69,3.05-25.62,3.05-16.86-1.42-25.12-4.24c-8.26-2.83-15.64-6.98-22.15-12.47-6.51-5.48-11.77-12.21-15.78-20.18-4.02-7.97-6.02-17.04-6.02-27.22,0-8.14,1.47-15.91,4.41-23.32,2.94-7.4,6.96-14.19,12.05-20.35,5.09-6.16,11.14-11.67,18.16-16.54,7.01-4.86,14.59-8.82,22.74-11.87-8.15-9.16-14.2-17.98-18.16-26.46-3.96-8.48-5.94-17.58-5.94-27.31,0-7.91,1.44-15.24,4.33-21.96,2.88-6.73,6.98-12.58,12.3-17.55,5.32-4.97,11.68-8.88,19.09-11.7,7.41-2.82,15.7-4.24,24.86-4.24,7.58,0,14.76,1.3,21.55,3.9,6.79,2.6,12.7,6.11,17.73,10.52,5.03,4.41,9.05,9.53,12.05,15.35,3,5.82,4.61,11.9,4.84,18.23l-9.16,1.87c-1.13.23-2.18.03-3.14-.59-.96-.62-1.73-1.72-2.29-3.31-.57-3.05-1.78-6.5-3.65-10.35-1.87-3.84-4.5-7.46-7.89-10.85-3.39-3.39-7.58-6.25-12.56-8.57-4.98-2.32-10.8-3.48-17.48-3.48s-12.95,1.05-18.5,3.14c-5.54,2.09-10.29,5.03-14.25,8.82-3.96,3.79-7.04,8.28-9.25,13.48-2.21,5.2-3.31,10.91-3.31,17.13,0,9.27,2.37,18.15,7.13,26.63,4.75,8.48,12.1,17.58,22.06,27.31l75.85,74.46c5.09-8.14,9.1-16.59,12.05-25.36,2.94-8.76,4.86-17.27,5.77-25.52.22-1.47.68-2.63,1.36-3.48.68-.85,1.7-1.27,3.05-1.27h9.33c-.23,10.63-2.21,21.57-5.94,32.82-3.73,11.25-9.11,22.02-16.12,32.31l50.4,49.52Zm-148.31-125.17c-7.47,3.05-14.23,6.78-20.28,11.19-6.05,4.41-11.17,9.33-15.36,14.76-4.19,5.43-7.41,11.25-9.67,17.47-2.26,6.22-3.39,12.66-3.39,19.33,0,8.71,1.67,16.28,5.01,22.73,3.33,6.45,7.66,11.85,12.98,16.2,5.32,4.35,11.23,7.61,17.73,9.75,6.5,2.15,12.92,3.22,19.26,3.22,8.03,0,15.58-.9,22.66-2.71,7.07-1.81,13.66-4.33,19.77-7.55,6.11-3.22,11.76-7.06,16.97-11.53,5.2-4.47,9.9-9.3,14.09-14.5l-77.89-76.49-1.87-1.87Z"/><path class="cls-1" d="m1651.68,230.75h14.25c2.15,0,4.01-.08,5.6-.25,1.58-.17,3.03-.48,4.33-.93,1.3-.45,2.49-1.1,3.56-1.95,1.07-.85,2.23-1.89,3.48-3.14l96.89-99.55c1.7-1.92,3.37-3.22,5.01-3.9,1.64-.68,3.59-1.02,5.85-1.02h13.91l-104.87,107.7c-2.15,2.26-4.05,4.01-5.68,5.26-1.64,1.25-3.48,2.26-5.51,3.05,2.37.68,4.52,1.72,6.45,3.14,1.92,1.42,3.85,3.25,5.77,5.51l110.47,115.33h-14.08c-2.94,0-5.07-.37-6.36-1.1-1.3-.73-2.57-1.89-3.82-3.48l-101.48-103.79c-1.25-1.24-2.41-2.32-3.48-3.22-1.07-.9-2.26-1.67-3.56-2.29-1.3-.62-2.83-1.07-4.58-1.36-1.75-.28-3.99-.42-6.7-.42h-15.44v115.67h-17.48V120h17.48v110.75Z"/><path class="cls-1" d="m2126.48,359.98h-13.41c-1.58,0-2.88-.42-3.9-1.27-1.02-.85-1.81-1.95-2.38-3.31l-28.17-69.71h-117.94l-28.17,69.71c-.45,1.25-1.24,2.32-2.37,3.22-1.13.91-2.49,1.36-4.07,1.36h-13.24l98.25-239.98h17.14l98.25,239.98Zm-53.11-87.17l-48.87-121.26c-1.7-3.96-3.34-8.71-4.92-14.25-.68,2.71-1.41,5.29-2.21,7.72-.79,2.43-1.64,4.66-2.54,6.7l-48.87,121.09h107.42Z"/><path class="cls-1" d="m2171.68,113.22v150.43h7.81c1.58,0,3.08-.22,4.5-.68,1.41-.45,2.97-1.53,4.67-3.22l67.71-64.28c1.13-1.36,2.37-2.4,3.73-3.14,1.36-.73,3.05-1.1,5.09-1.1h14.25l-74.49,70.72c-2.04,2.38-4.24,4.24-6.62,5.6,1.81.91,3.37,1.95,4.67,3.14,1.3,1.19,2.57,2.57,3.82,4.15l78.23,85.14h-14.09c-1.58,0-3.03-.25-4.33-.76-1.3-.51-2.52-1.55-3.65-3.14l-70.93-75.98c-.91-1.02-1.78-1.87-2.63-2.54-.85-.68-1.73-1.21-2.63-1.61-.91-.39-1.95-.68-3.14-.85s-2.63-.25-4.33-.25h-7.64v85.14h-16.29V113.22h16.29Z"/><path class="cls-1" d="m2307.91,215.14c8.82-8.82,18.1-15.49,27.83-20.01,9.73-4.52,20.76-6.78,33.09-6.78,9.05,0,16.97,1.44,23.76,4.32,6.79,2.88,12.42,7.01,16.88,12.38,4.47,5.37,7.83,11.87,10.1,19.5,2.26,7.63,3.39,16.14,3.39,25.53v109.9h-6.45c-3.39,0-5.49-1.58-6.28-4.75l-2.38-21.71c-4.64,4.52-9.25,8.59-13.83,12.21-4.58,3.62-9.36,6.67-14.34,9.16-4.98,2.49-10.35,4.41-16.12,5.77-5.77,1.36-12.11,2.04-19,2.04-5.77,0-11.37-.85-16.8-2.54-5.43-1.7-10.27-4.3-14.51-7.8-4.24-3.5-7.64-8-10.18-13.48-2.55-5.48-3.82-12.07-3.82-19.76,0-7.12,2.04-13.74,6.11-19.84,4.07-6.11,10.46-11.42,19.17-15.94,8.71-4.52,19.88-8.14,33.51-10.85s30.01-4.3,49.13-4.75v-17.64c0-15.6-3.37-27.62-10.1-36.04-6.73-8.42-16.71-12.64-29.95-12.64-8.15,0-15.08,1.13-20.79,3.39-5.71,2.26-10.55,4.75-14.51,7.46-3.96,2.71-7.19,5.2-9.67,7.46-2.49,2.26-4.58,3.39-6.28,3.39-1.25,0-2.26-.28-3.05-.85-.79-.56-1.47-1.3-2.04-2.21l-2.88-4.92Zm99.27,63.26c-16.07.57-29.9,1.84-41.49,3.82-11.6,1.98-21.16,4.66-28.68,8.06-7.53,3.39-13.1,7.44-16.71,12.13-3.62,4.69-5.43,10.04-5.43,16.03,0,5.66.93,10.54,2.8,14.67,1.87,4.13,4.35,7.52,7.47,10.18,3.11,2.66,6.7,4.61,10.78,5.85,4.07,1.25,8.32,1.87,12.73,1.87,6.56,0,12.58-.7,18.07-2.12,5.49-1.41,10.58-3.39,15.27-5.94,4.69-2.54,9.08-5.57,13.15-9.07,4.07-3.5,8.09-7.29,12.05-11.36v-44.1Z"/><path class="cls-1" d="m2601.48,113.22v246.77h-8.83c-2.94,0-4.64-1.47-5.09-4.41l-1.7-26.63c-7.47,10.18-16.18,18.26-26.13,24.25-9.96,5.99-21.16,8.99-33.6,8.99-20.82,0-36.99-7.18-48.53-21.54-11.54-14.36-17.31-35.9-17.31-64.62,0-12.32,1.61-23.83,4.83-34.51,3.22-10.68,7.95-19.95,14.17-27.81,6.22-7.86,13.89-14.05,22.99-18.57,9.1-4.52,19.6-6.78,31.48-6.78s21.32,2.09,29.7,6.27c8.37,4.18,15.67,10.4,21.89,18.66v-100.06h16.12Zm-16.12,114.31c-6.45-9.72-13.61-16.56-21.47-20.52-7.86-3.96-16.83-5.94-26.9-5.94s-18.67,1.81-26.13,5.43c-7.47,3.62-13.72,8.73-18.75,15.35-5.03,6.62-8.82,14.53-11.37,23.74-2.54,9.22-3.82,19.36-3.82,30.44,0,25.1,4.61,43.56,13.83,55.38,9.22,11.82,22.54,17.72,39.96,17.72,11.09,0,21.21-2.88,30.37-8.65s17.25-13.85,24.27-24.25v-88.7Z"/><path class="cls-1" d="m2655.37,268.91v3.22c0,12.66,1.47,23.8,4.41,33.41,2.94,9.61,7.13,17.67,12.56,24.17,5.43,6.5,11.99,11.39,19.68,14.67,7.69,3.28,16.29,4.92,25.79,4.92,8.49,0,15.84-.93,22.06-2.8,6.22-1.87,11.45-3.96,15.7-6.28,4.24-2.32,7.61-4.41,10.1-6.27,2.49-1.87,4.3-2.8,5.43-2.8,1.47,0,2.6.57,3.39,1.7l4.41,5.43c-2.72,3.39-6.31,6.56-10.78,9.5-4.47,2.94-9.45,5.46-14.93,7.55-5.49,2.09-11.37,3.76-17.65,5-6.28,1.24-12.59,1.87-18.92,1.87-11.54,0-22.06-2.01-31.56-6.02-9.5-4.01-17.65-9.86-24.44-17.55-6.79-7.69-12.02-17.1-15.7-28.24-3.68-11.13-5.51-23.88-5.51-38.24,0-12.1,1.72-23.26,5.17-33.5,3.45-10.23,8.43-19.05,14.93-26.46,6.5-7.4,14.48-13.2,23.93-17.38,9.44-4.18,20.16-6.28,32.16-6.28,9.5,0,18.33,1.64,26.47,4.92,8.15,3.28,15.21,8.06,21.21,14.33,6,6.28,10.72,13.99,14.17,23.15,3.45,9.16,5.17,19.67,5.17,31.55,0,2.49-.34,4.18-1.02,5.09-.68.91-1.81,1.36-3.39,1.36h-122.86Zm112.68-10.35c0-9.04-1.27-17.16-3.82-24.34-2.55-7.18-6.14-13.25-10.78-18.23-4.64-4.97-10.16-8.79-16.55-11.45-6.39-2.66-13.43-3.99-21.13-3.99-8.71,0-16.52,1.36-23.42,4.07s-12.87,6.61-17.9,11.7c-5.03,5.09-9.08,11.19-12.13,18.32-3.05,7.12-5.09,15.09-6.11,23.91h111.83Z"/><path class="cls-1" d="m2817.53,359.98v-168.75h8.99c2.83,0,4.47,1.42,4.92,4.24l1.53,24.42c6.56-9.38,14.08-16.96,22.57-22.73,8.49-5.77,18.04-8.65,28.68-8.65,12.33,0,22.2,3.56,29.61,10.68,7.41,7.12,12.41,17.02,15.02,29.68,2.04-6.9,4.89-12.89,8.57-17.98,3.67-5.09,7.89-9.3,12.64-12.64,4.75-3.33,9.93-5.79,15.53-7.38,5.6-1.58,11.34-2.38,17.22-2.38,8.37,0,15.89,1.39,22.57,4.16,6.67,2.77,12.33,6.87,16.97,12.3,4.64,5.43,8.2,12.1,10.69,20.01,2.49,7.92,3.73,16.96,3.73,27.14v107.87h-16.12v-107.87c0-16.51-3.56-29.09-10.69-37.74s-17.31-12.97-30.54-12.97c-5.88,0-11.51,1.08-16.88,3.22-5.37,2.15-10.13,5.34-14.25,9.58-4.13,4.24-7.41,9.53-9.84,15.86-2.43,6.33-3.65,13.68-3.65,22.05v107.87h-16.29v-107.87c0-16.39-3.25-28.94-9.76-37.65-6.51-8.71-16.04-13.06-28.59-13.06-9.16,0-17.65,2.71-25.45,8.14-7.81,5.43-14.76,12.95-20.87,22.56v127.88h-16.29Z"/><path class="cls-1" d="m3105.9,133.06c0,2.04-.42,3.93-1.27,5.68-.85,1.75-1.95,3.31-3.31,4.66-1.36,1.36-2.94,2.43-4.75,3.22-1.81.79-3.73,1.19-5.77,1.19s-3.96-.39-5.77-1.19c-1.81-.79-3.39-1.87-4.75-3.22-1.36-1.36-2.43-2.91-3.22-4.66-.79-1.75-1.19-3.65-1.19-5.68s.39-3.99,1.19-5.85c.79-1.87,1.87-3.48,3.22-4.83,1.36-1.36,2.94-2.43,4.75-3.22,1.81-.79,3.73-1.19,5.77-1.19s3.96.4,5.77,1.19c1.81.79,3.39,1.87,4.75,3.22,1.36,1.36,2.46,2.97,3.31,4.83.85,1.87,1.27,3.82,1.27,5.85Zm-6.96,58.17v168.75h-16.12v-168.75h16.12Z"/><path class="cls-1" d="m3152.73,268.91v3.22c0,12.66,1.47,23.8,4.41,33.41,2.94,9.61,7.13,17.67,12.56,24.17,5.43,6.5,11.99,11.39,19.68,14.67,7.69,3.28,16.29,4.92,25.79,4.92,8.49,0,15.84-.93,22.06-2.8,6.22-1.87,11.45-3.96,15.7-6.28,4.24-2.32,7.61-4.41,10.1-6.27,2.49-1.87,4.3-2.8,5.43-2.8,1.47,0,2.6.57,3.39,1.7l4.41,5.43c-2.72,3.39-6.31,6.56-10.78,9.5-4.47,2.94-9.45,5.46-14.93,7.55-5.49,2.09-11.37,3.76-17.65,5-6.28,1.24-12.59,1.87-18.92,1.87-11.54,0-22.06-2.01-31.56-6.02-9.5-4.01-17.65-9.86-24.44-17.55-6.79-7.69-12.02-17.1-15.7-28.24-3.68-11.13-5.51-23.88-5.51-38.24,0-12.1,1.72-23.26,5.17-33.5,3.45-10.23,8.43-19.05,14.93-26.46,6.5-7.4,14.48-13.2,23.93-17.38,9.44-4.18,20.16-6.28,32.16-6.28,9.5,0,18.33,1.64,26.47,4.92,8.15,3.28,15.21,8.06,21.21,14.33,6,6.28,10.72,13.99,14.17,23.15,3.45,9.16,5.17,19.67,5.17,31.55,0,2.49-.34,4.18-1.02,5.09-.68.91-1.81,1.36-3.39,1.36h-122.86Zm112.68-10.35c0-9.04-1.27-17.16-3.82-24.34-2.55-7.18-6.14-13.25-10.78-18.23-4.64-4.97-10.16-8.79-16.55-11.45-6.39-2.66-13.43-3.99-21.13-3.99-8.71,0-16.52,1.36-23.42,4.07s-12.87,6.61-17.9,11.7c-5.03,5.09-9.08,11.19-12.13,18.32-3.05,7.12-5.09,15.09-6.11,23.91h111.83Z"/><polygon class="cls-2" points="720 160 520 160 680 0 880 0 720 160"/></g></svg>