<?xml version="1.0" encoding="UTF-8"?><svg id="Ebene_2" xmlns="http://www.w3.org/2000/svg" viewBox="0 0 3200 480"><defs><style>.cls-1{fill:#fff;}.cls-2{fill:#78a000;}</style></defs><g id="kk"><rect class="cls-1" width="160" height="320"/><polygon class="cls-1" points="520 160 320 160 160 320 320 480 520 480 360 320 520 160"/><polygon class="cls-1" points="720 160 520 160 680 320 880 320 720 160"/></g><g id="K_K_Coaching"><path class="cls-1" d="m1217.49,230.75h14.26c2.15,0,4.02-.08,5.6-.25,1.58-.17,3.03-.48,4.33-.93,1.3-.45,2.49-1.1,3.57-1.95,1.07-.85,2.23-1.89,3.48-3.14l96.93-99.55c1.7-1.92,3.37-3.22,5.01-3.9,1.64-.68,3.59-1.02,5.86-1.02h13.92l-104.91,107.7c-2.15,2.26-4.05,4.01-5.69,5.26-1.64,1.25-3.48,2.26-5.52,3.05,2.38.68,4.52,1.72,6.45,3.14,1.92,1.42,3.85,3.25,5.77,5.51l110.51,115.33h-14.09c-2.94,0-5.07-.37-6.37-1.1-1.3-.73-2.57-1.89-3.82-3.48l-101.52-103.79c-1.25-1.24-2.41-2.32-3.48-3.22-1.08-.9-2.26-1.67-3.56-2.29-1.3-.62-2.83-1.07-4.58-1.36-1.76-.28-3.99-.42-6.71-.42h-15.45v115.67h-17.49V120h17.49v110.75Z"/><path class="cls-1" d="m1599.89,359.98h-15.11c-2.04,0-3.71-.23-5.01-.68-1.3-.45-2.8-1.47-4.5-3.05l-34.8-34.09c-4.98,5.88-10.53,11.28-16.64,16.2s-12.73,9.19-19.86,12.8c-7.13,3.62-14.77,6.45-22.92,8.48s-16.7,3.05-25.63,3.05-16.87-1.42-25.13-4.24c-8.26-2.83-15.65-6.98-22.15-12.47-6.51-5.48-11.77-12.21-15.79-20.18-4.02-7.97-6.03-17.04-6.03-27.22,0-8.14,1.47-15.91,4.41-23.32,2.94-7.4,6.96-14.19,12.05-20.35,5.09-6.16,11.15-11.67,18.16-16.54,7.02-4.86,14.6-8.82,22.75-11.87-8.15-9.16-14.2-17.98-18.16-26.46-3.96-8.48-5.94-17.58-5.94-27.31,0-7.91,1.44-15.24,4.33-21.96,2.89-6.73,6.99-12.58,12.31-17.55,5.32-4.97,11.68-8.88,19.1-11.7,7.41-2.82,15.7-4.24,24.87-4.24,7.58,0,14.77,1.3,21.56,3.9,6.79,2.6,12.7,6.11,17.74,10.52,5.03,4.41,9.05,9.53,12.05,15.35,3,5.82,4.61,11.9,4.84,18.23l-9.17,1.87c-1.13.23-2.18.03-3.14-.59-.96-.62-1.73-1.72-2.29-3.31-.57-3.05-1.78-6.5-3.65-10.35-1.87-3.84-4.5-7.46-7.89-10.85-3.4-3.39-7.58-6.25-12.56-8.57-4.98-2.32-10.81-3.48-17.49-3.48s-12.96,1.05-18.5,3.14c-5.55,2.09-10.3,5.03-14.26,8.82-3.96,3.79-7.04,8.28-9.25,13.48-2.21,5.2-3.31,10.91-3.31,17.13,0,9.27,2.38,18.15,7.13,26.63,4.75,8.48,12.11,17.58,22.07,27.31l75.88,74.46c5.09-8.14,9.11-16.59,12.05-25.36,2.94-8.76,4.87-17.27,5.77-25.52.22-1.47.68-2.63,1.36-3.48.68-.85,1.7-1.27,3.06-1.27h9.34c-.23,10.63-2.21,21.57-5.94,32.82-3.73,11.25-9.11,22.02-16.13,32.31l50.42,49.52Zm-148.37-125.17c-7.47,3.05-14.23,6.78-20.28,11.19-6.06,4.41-11.18,9.33-15.36,14.76-4.19,5.43-7.41,11.25-9.68,17.47-2.27,6.22-3.4,12.66-3.4,19.33,0,8.71,1.67,16.28,5.01,22.73,3.34,6.45,7.67,11.85,12.98,16.2,5.32,4.35,11.23,7.61,17.74,9.75,6.51,2.15,12.93,3.22,19.27,3.22,8.03,0,15.59-.9,22.66-2.71,7.07-1.81,13.67-4.33,19.78-7.55,6.11-3.22,11.77-7.06,16.98-11.53,5.2-4.47,9.9-9.3,14.09-14.5l-77.92-76.49-1.87-1.87Z"/><path class="cls-1" d="m1650.5,230.75h14.26c2.15,0,4.02-.08,5.6-.25,1.58-.17,3.03-.48,4.33-.93,1.3-.45,2.49-1.1,3.56-1.95,1.08-.85,2.23-1.89,3.48-3.14l96.93-99.55c1.7-1.92,3.37-3.22,5.01-3.9,1.64-.68,3.59-1.02,5.86-1.02h13.92l-104.91,107.7c-2.15,2.26-4.05,4.01-5.69,5.26-1.64,1.25-3.48,2.26-5.52,3.05,2.38.68,4.53,1.72,6.45,3.14,1.92,1.42,3.85,3.25,5.77,5.51l110.51,115.33h-14.09c-2.94,0-5.07-.37-6.37-1.1-1.3-.73-2.58-1.89-3.82-3.48l-101.52-103.79c-1.25-1.24-2.41-2.32-3.48-3.22-1.08-.9-2.27-1.67-3.57-2.29-1.3-.62-2.83-1.07-4.58-1.36-1.76-.28-3.99-.42-6.71-.42h-15.45v115.67h-17.49V120h17.49v110.75Z"/><path class="cls-1" d="m2114.79,319.62c1.13,0,2.09.4,2.89,1.19l6.79,7.29c-4.98,5.32-10.38,10.09-16.21,14.33-5.83,4.24-12.22,7.86-19.18,10.85-6.96,3-14.6,5.32-22.92,6.95-8.32,1.64-17.46,2.46-27.41,2.46-16.64,0-31.89-2.91-45.75-8.73-13.86-5.82-25.78-14.08-35.73-24.76-9.96-10.68-17.68-23.6-23.17-38.75-5.49-15.15-8.23-32-8.23-50.54s2.83-34.82,8.49-49.86c5.66-15.04,13.58-27.96,23.76-38.75,10.19-10.8,22.41-19.17,36.67-25.1,14.26-5.94,29.99-8.9,47.19-8.9s30.95,2.54,43.63,7.63c12.67,5.09,24.22,12.27,34.63,21.54l-5.26,7.63c-.91,1.36-2.32,2.04-4.24,2.04-1.36,0-3.56-1.24-6.62-3.73-3.06-2.49-7.3-5.23-12.73-8.23-5.43-2.99-12.2-5.74-20.28-8.23-8.09-2.49-17.8-3.73-29.11-3.73-14.49,0-27.76,2.49-39.81,7.46-12.05,4.98-22.41,12.1-31.07,21.37-8.66,9.27-15.42,20.58-20.28,33.92-4.87,13.34-7.3,28.32-7.3,44.94s2.46,32.11,7.38,45.45c4.92,13.34,11.68,24.62,20.29,33.83,8.6,9.22,18.76,16.28,30.47,21.2,11.71,4.92,24.36,7.38,37.94,7.38,8.6,0,16.27-.56,23-1.7,6.73-1.13,12.93-2.83,18.59-5.09,5.66-2.26,10.92-5.03,15.79-8.31,4.86-3.28,9.68-7.12,14.43-11.53.56-.45,1.13-.82,1.7-1.1.56-.28,1.13-.42,1.7-.42Z"/><path class="cls-1" d="m2222.96,188.52c12.11,0,22.95,2.06,32.51,6.19,9.56,4.13,17.63,9.98,24.19,17.55,6.56,7.58,11.57,16.71,15.02,27.39,3.45,10.68,5.18,22.64,5.18,35.87s-1.73,25.16-5.18,35.79c-3.45,10.63-8.46,19.73-15.02,27.31-6.56,7.58-14.63,13.4-24.19,17.47-9.56,4.07-20.4,6.11-32.51,6.11s-22.95-2.04-32.51-6.11c-9.57-4.07-17.66-9.89-24.28-17.47-6.62-7.57-11.66-16.68-15.11-27.31-3.45-10.63-5.18-22.56-5.18-35.79s1.72-25.19,5.18-35.87c3.45-10.68,8.49-19.81,15.11-27.39,6.62-7.57,14.71-13.42,24.28-17.55,9.56-4.13,20.4-6.19,32.51-6.19Zm0,160.95c10.07,0,18.87-1.72,26.4-5.17,7.52-3.45,13.81-8.39,18.84-14.84,5.03-6.44,8.8-14.22,11.29-23.32,2.49-9.1,3.74-19.31,3.74-30.61s-1.25-21.37-3.74-30.53c-2.49-9.16-6.25-16.99-11.29-23.49-5.04-6.5-11.32-11.5-18.84-15.01-7.53-3.5-16.33-5.26-26.4-5.26s-18.87,1.75-26.4,5.26c-7.53,3.51-13.81,8.51-18.84,15.01-5.04,6.5-8.83,14.33-11.37,23.49-2.55,9.16-3.82,19.33-3.82,30.53s1.27,21.51,3.82,30.61c2.55,9.1,6.34,16.88,11.37,23.32,5.03,6.45,11.32,11.39,18.84,14.84,7.52,3.45,16.32,5.17,26.4,5.17Z"/><path class="cls-1" d="m2333.74,215.14c8.83-8.82,18.11-15.49,27.84-20.01,9.73-4.52,20.77-6.78,33.1-6.78,9.05,0,16.98,1.44,23.77,4.32,6.79,2.88,12.42,7.01,16.89,12.38,4.47,5.37,7.84,11.87,10.1,19.5s3.4,16.14,3.4,25.53v109.9h-6.45c-3.39,0-5.49-1.58-6.28-4.75l-2.38-21.71c-4.64,4.52-9.25,8.59-13.84,12.21-4.58,3.62-9.37,6.67-14.35,9.16-4.98,2.49-10.36,4.41-16.13,5.77-5.77,1.36-12.11,2.04-19.01,2.04-5.77,0-11.37-.85-16.8-2.54-5.43-1.7-10.27-4.3-14.51-7.8-4.24-3.5-7.64-8-10.19-13.48-2.55-5.48-3.82-12.07-3.82-19.76,0-7.12,2.04-13.74,6.11-19.84,4.07-6.11,10.47-11.42,19.18-15.94,8.71-4.52,19.89-8.14,33.53-10.85,13.64-2.71,30.02-4.3,49.14-4.75v-17.64c0-15.6-3.37-27.62-10.1-36.04-6.73-8.42-16.72-12.64-29.96-12.64-8.15,0-15.08,1.13-20.8,3.39-5.72,2.26-10.55,4.75-14.51,7.46-3.96,2.71-7.19,5.2-9.68,7.46-2.49,2.26-4.58,3.39-6.28,3.39-1.25,0-2.26-.28-3.06-.85-.79-.56-1.47-1.3-2.04-2.21l-2.89-4.92Zm99.31,63.26c-16.07.57-29.91,1.84-41.51,3.82-11.6,1.98-21.16,4.66-28.69,8.06-7.53,3.39-13.1,7.44-16.72,12.13-3.62,4.69-5.43,10.04-5.43,16.03,0,5.66.93,10.54,2.8,14.67,1.87,4.13,4.36,7.52,7.47,10.18,3.11,2.66,6.71,4.61,10.78,5.85,4.07,1.25,8.32,1.87,12.73,1.87,6.56,0,12.59-.7,18.08-2.12,5.49-1.41,10.58-3.39,15.28-5.94s9.08-5.57,13.16-9.07c4.07-3.5,8.09-7.29,12.05-11.36v-44.1Z"/><path class="cls-1" d="m2608.54,213.79c-.57.57-1.1,1.05-1.61,1.44-.51.4-1.22.59-2.12.59-1.13,0-2.66-.76-4.58-2.29-1.93-1.53-4.53-3.19-7.81-5-3.28-1.81-7.38-3.48-12.31-5s-10.89-2.29-17.91-2.29c-9.73,0-18.36,1.73-25.89,5.17-7.53,3.45-13.89,8.4-19.1,14.84-5.21,6.44-9.14,14.25-11.8,23.4-2.66,9.16-3.99,19.45-3.99,30.87s1.39,22.39,4.16,31.55c2.77,9.16,6.71,16.88,11.8,23.15,5.09,6.28,11.26,11.05,18.5,14.33,7.24,3.28,15.28,4.92,24.1,4.92,8.15,0,14.97-.96,20.46-2.88,5.49-1.92,10.02-4.01,13.58-6.28,3.57-2.26,6.37-4.35,8.4-6.28,2.04-1.92,3.73-2.88,5.09-2.88s2.49.57,3.39,1.7l4.24,5.43c-2.6,3.39-5.88,6.56-9.85,9.5-3.96,2.94-8.43,5.49-13.41,7.63-4.98,2.15-10.38,3.82-16.21,5-5.83,1.19-11.91,1.78-18.25,1.78-10.75,0-20.57-1.95-29.45-5.85-8.89-3.9-16.53-9.55-22.92-16.96-6.39-7.4-11.37-16.48-14.94-27.22-3.57-10.74-5.35-22.95-5.35-36.63,0-12.89,1.7-24.65,5.09-35.28,3.39-10.63,8.37-19.79,14.94-27.48,6.56-7.69,14.57-13.65,24.02-17.89,9.45-4.24,20.29-6.36,32.51-6.36,10.98,0,20.71,1.75,29.2,5.26,8.49,3.51,15.9,8.25,22.24,14.25l-4.24,5.77Z"/><path class="cls-1" d="m2662.36,219.72c7.81-9.5,16.72-17.07,26.74-22.73,10.02-5.65,21.25-8.48,33.7-8.48,9.28,0,17.46,1.47,24.53,4.41,7.07,2.94,12.93,7.18,17.57,12.72,4.64,5.54,8.15,12.21,10.52,20.01,2.38,7.8,3.57,16.62,3.57,26.46v107.87h-16.3v-107.87c0-15.83-3.62-28.24-10.87-37.23-7.24-8.99-18.28-13.48-33.1-13.48-10.98,0-21.25,2.8-30.81,8.4-9.56,5.6-18.08,13.37-25.55,23.32v126.86h-16.3V113.22h16.3v106.51Z"/><path class="cls-1" d="m2847.29,133.06c0,2.04-.42,3.93-1.27,5.68-.85,1.75-1.95,3.31-3.31,4.66-1.36,1.36-2.94,2.43-4.75,3.22-1.81.79-3.74,1.19-5.77,1.19s-3.96-.39-5.77-1.19c-1.81-.79-3.4-1.87-4.75-3.22-1.36-1.36-2.44-2.91-3.23-4.66-.79-1.75-1.19-3.65-1.19-5.68s.39-3.99,1.19-5.85c.79-1.87,1.87-3.48,3.23-4.83,1.36-1.36,2.94-2.43,4.75-3.22,1.81-.79,3.73-1.19,5.77-1.19s3.96.4,5.77,1.19c1.81.79,3.4,1.87,4.75,3.22,1.36,1.36,2.46,2.97,3.31,4.83.85,1.87,1.27,3.82,1.27,5.85Zm-6.96,58.17v168.75h-16.13v-168.75h16.13Z"/><path class="cls-1" d="m2902.93,220.74c7.81-9.72,16.83-17.52,27.08-23.41,10.24-5.88,21.64-8.82,34.21-8.82,9.28,0,17.46,1.47,24.53,4.41,7.07,2.94,12.93,7.18,17.57,12.72,4.64,5.54,8.15,12.21,10.53,20.01,2.38,7.8,3.56,16.62,3.56,26.46v107.87h-16.3v-107.87c0-15.83-3.62-28.24-10.86-37.23-7.25-8.99-18.28-13.48-33.1-13.48-10.98,0-21.25,2.8-30.81,8.4-9.57,5.6-18.08,13.37-25.55,23.32v126.86h-16.3v-168.75h9c2.83,0,4.47,1.42,4.92,4.24l1.53,25.27Z"/><path class="cls-1" d="m3200,198.69v5.6c0,2.49-1.59,4.01-4.75,4.58l-25.8,1.87c3.17,4.3,5.6,9.1,7.3,14.42,1.7,5.32,2.55,11.08,2.55,17.3,0,8.14-1.44,15.52-4.33,22.13-2.89,6.62-6.96,12.27-12.22,16.96-5.26,4.69-11.6,8.34-19.01,10.94-7.41,2.6-15.59,3.9-24.53,3.9-9.62,0-18.39-1.47-26.31-4.41-4.75,2.71-8.52,5.91-11.29,9.58-2.77,3.67-4.16,7.32-4.16,10.94,0,4.86,1.72,8.59,5.18,11.19,3.45,2.6,7.98,4.49,13.58,5.68,5.6,1.19,11.99,1.95,19.18,2.29,7.19.34,14.51.71,21.98,1.1,7.47.4,14.8,1.1,21.98,2.12,7.19,1.02,13.58,2.8,19.18,5.34,5.6,2.54,10.13,6.11,13.58,10.69,3.45,4.58,5.18,10.66,5.18,18.23,0,7.01-1.76,13.74-5.26,20.18-3.51,6.44-8.57,12.15-15.19,17.13-6.62,4.97-14.63,8.96-24.02,11.96-9.4,3-19.92,4.5-31.57,4.5s-22.3-1.22-31.24-3.65c-8.94-2.43-16.44-5.71-22.49-9.84-6.06-4.13-10.61-8.9-13.67-14.33-3.06-5.43-4.58-11.19-4.58-17.3,0-8.93,2.94-16.59,8.83-22.98,5.88-6.39,13.92-11.39,24.11-15.01-5.66-1.92-10.21-4.72-13.67-8.39-3.45-3.67-5.18-8.68-5.18-15.01,0-2.38.45-4.86,1.36-7.46.91-2.6,2.26-5.17,4.07-7.72,1.81-2.54,4.02-4.94,6.62-7.21,2.6-2.26,5.54-4.3,8.83-6.11-8.04-4.63-14.29-10.8-18.76-18.49-4.47-7.69-6.71-16.68-6.71-26.97,0-8.14,1.44-15.52,4.33-22.13,2.89-6.61,6.99-12.3,12.31-17.04,5.32-4.75,11.68-8.42,19.1-11.02,7.41-2.6,15.65-3.9,24.7-3.9,7.47,0,14.34.91,20.62,2.71,6.28,1.81,11.91,4.35,16.89,7.63h43.29Zm-17.66,172.65c0-5.32-1.39-9.58-4.16-12.8-2.78-3.22-6.48-5.74-11.12-7.55-4.64-1.81-9.99-3.08-16.04-3.82-6.05-.73-12.39-1.27-19.01-1.61-6.62-.34-13.27-.68-19.95-1.02-6.68-.34-12.96-1.02-18.84-2.04-4.3,1.7-8.26,3.65-11.88,5.85-3.62,2.2-6.73,4.72-9.34,7.55-2.61,2.83-4.64,5.91-6.11,9.24-1.47,3.33-2.21,6.92-2.21,10.77,0,4.97,1.27,9.58,3.82,13.82,2.55,4.24,6.28,7.91,11.2,11.02,4.92,3.11,10.95,5.57,18.08,7.38,7.13,1.81,15.33,2.71,24.62,2.71,8.6,0,16.61-.96,24.02-2.88,7.41-1.92,13.86-4.64,19.35-8.14,5.49-3.51,9.79-7.69,12.9-12.55,3.11-4.86,4.67-10.18,4.67-15.94Zm-63.15-85.99c7.24,0,13.69-1.04,19.35-3.14,5.66-2.09,10.41-5,14.26-8.73,3.85-3.73,6.79-8.2,8.83-13.4,2.04-5.2,3.06-10.97,3.06-17.3s-1.05-12.13-3.14-17.38c-2.1-5.26-5.09-9.75-9-13.48-3.91-3.73-8.66-6.61-14.26-8.65-5.6-2.04-11.97-3.05-19.1-3.05s-13.5,1.02-19.1,3.05c-5.6,2.04-10.36,4.92-14.26,8.65-3.9,3.73-6.88,8.23-8.91,13.48-2.04,5.26-3.06,11.05-3.06,17.38s1.02,12.1,3.06,17.3c2.04,5.2,5.01,9.67,8.91,13.4s8.66,6.64,14.26,8.73c5.6,2.09,11.97,3.14,19.1,3.14Z"/><polygon class="cls-2" points="720 160 520 160 680 0 880 0 720 160"/></g></svg>