<?xml version="1.0" encoding="UTF-8"?><svg id="Ebene_2" xmlns="http://www.w3.org/2000/svg" viewBox="0 0 2960 480"><defs><style>.cls-1{fill:#e65a1e;}.cls-2{fill:#fff;}</style></defs><g id="kk"><rect class="cls-2" width="160" height="320"/><polygon class="cls-2" points="520 160 320 160 160 320 320 480 520 480 360 320 520 160"/><polygon class="cls-2" points="720 160 520 160 680 320 880 320 720 160"/></g><g id="K_K_Engage"><path class="cls-2" d="m1217.48,230.75h14.25c2.15,0,4.01-.08,5.6-.25,1.58-.17,3.03-.48,4.33-.93,1.3-.45,2.49-1.1,3.56-1.95,1.07-.85,2.23-1.89,3.48-3.14l96.9-99.55c1.7-1.92,3.37-3.22,5.01-3.9,1.64-.68,3.59-1.02,5.85-1.02h13.91l-104.87,107.7c-2.15,2.26-4.05,4.01-5.68,5.26-1.64,1.25-3.48,2.26-5.51,3.05,2.37.68,4.52,1.72,6.45,3.14,1.92,1.42,3.85,3.25,5.77,5.51l110.47,115.33h-14.08c-2.94,0-5.07-.37-6.37-1.1-1.3-.73-2.57-1.89-3.82-3.48l-101.48-103.79c-1.25-1.24-2.41-2.32-3.48-3.22-1.07-.9-2.26-1.67-3.56-2.29-1.3-.62-2.83-1.07-4.58-1.36-1.75-.28-3.99-.42-6.7-.42h-15.44v115.67h-17.48V120h17.48v110.75Z"/><path class="cls-2" d="m1605.17,359.98h-15.1c-2.04,0-3.71-.23-5.01-.68-1.3-.45-2.8-1.47-4.5-3.05l-34.79-34.09c-4.98,5.88-10.52,11.28-16.63,16.2s-12.73,9.19-19.85,12.8c-7.13,3.62-14.76,6.45-22.91,8.48s-16.69,3.05-25.62,3.05-16.86-1.42-25.11-4.24c-8.26-2.83-15.64-6.98-22.15-12.47-6.51-5.48-11.77-12.21-15.78-20.18-4.02-7.97-6.02-17.04-6.02-27.22,0-8.14,1.47-15.91,4.41-23.32,2.94-7.4,6.96-14.19,12.05-20.35,5.09-6.16,11.14-11.67,18.16-16.54,7.01-4.86,14.59-8.82,22.74-11.87-8.15-9.16-14.2-17.98-18.16-26.46-3.96-8.48-5.94-17.58-5.94-27.31,0-7.91,1.44-15.24,4.33-21.96,2.89-6.73,6.98-12.58,12.3-17.55,5.32-4.97,11.68-8.88,19.09-11.7,7.41-2.82,15.7-4.24,24.86-4.24,7.58,0,14.76,1.3,21.55,3.9,6.79,2.6,12.7,6.11,17.73,10.52,5.03,4.41,9.05,9.53,12.05,15.35,3,5.82,4.61,11.9,4.84,18.23l-9.16,1.87c-1.13.23-2.18.03-3.14-.59-.96-.62-1.73-1.72-2.29-3.31-.57-3.05-1.78-6.5-3.65-10.35-1.87-3.84-4.5-7.46-7.89-10.85-3.39-3.39-7.58-6.25-12.56-8.57-4.98-2.32-10.81-3.48-17.48-3.48s-12.95,1.05-18.5,3.14c-5.54,2.09-10.3,5.03-14.25,8.82-3.96,3.79-7.04,8.28-9.25,13.48-2.2,5.2-3.31,10.91-3.31,17.13,0,9.27,2.38,18.15,7.13,26.63,4.75,8.48,12.1,17.58,22.06,27.31l75.85,74.46c5.09-8.14,9.1-16.59,12.05-25.36,2.94-8.76,4.86-17.27,5.77-25.52.23-1.47.68-2.63,1.36-3.48.68-.85,1.7-1.27,3.05-1.27h9.33c-.23,10.63-2.21,21.57-5.94,32.82-3.73,11.25-9.11,22.02-16.12,32.31l50.4,49.52Zm-148.31-125.17c-7.47,3.05-14.23,6.78-20.28,11.19-6.05,4.41-11.17,9.33-15.36,14.76-4.19,5.43-7.41,11.25-9.67,17.47-2.26,6.22-3.39,12.66-3.39,19.33,0,8.71,1.67,16.28,5.01,22.73,3.34,6.45,7.66,11.85,12.98,16.2,5.32,4.35,11.23,7.61,17.73,9.75,6.5,2.15,12.92,3.22,19.26,3.22,8.03,0,15.58-.9,22.65-2.71,7.07-1.81,13.66-4.33,19.77-7.55,6.11-3.22,11.76-7.06,16.97-11.53,5.2-4.47,9.9-9.3,14.08-14.5l-77.89-76.49-1.87-1.87Z"/><path class="cls-2" d="m1661.2,230.75h14.25c2.15,0,4.01-.08,5.6-.25,1.58-.17,3.03-.48,4.33-.93,1.3-.45,2.49-1.1,3.56-1.95,1.07-.85,2.23-1.89,3.48-3.14l96.9-99.55c1.7-1.92,3.37-3.22,5.01-3.9,1.64-.68,3.59-1.02,5.85-1.02h13.91l-104.87,107.7c-2.15,2.26-4.05,4.01-5.68,5.26-1.64,1.25-3.48,2.26-5.51,3.05,2.37.68,4.52,1.72,6.45,3.14,1.92,1.42,3.85,3.25,5.77,5.51l110.47,115.33h-14.08c-2.94,0-5.07-.37-6.37-1.1-1.3-.73-2.57-1.89-3.82-3.48l-101.48-103.79c-1.25-1.24-2.41-2.32-3.48-3.22-1.07-.9-2.26-1.67-3.56-2.29-1.3-.62-2.83-1.07-4.58-1.36-1.75-.28-3.99-.42-6.7-.42h-15.44v115.67h-17.48V120h17.48v110.75Z"/><path class="cls-2" d="m2107.16,345.57l-.34,14.42h-143.9V120h143.9v14.42h-126.42v97.01h105.21v14.08h-105.21v100.06h126.76Z"/><path class="cls-2" d="m2162,220.74c7.81-9.72,16.83-17.52,27.07-23.41,10.24-5.88,21.64-8.82,34.19-8.82,9.27,0,17.45,1.47,24.52,4.41,7.07,2.94,12.92,7.18,17.56,12.72,4.64,5.54,8.15,12.21,10.52,20.01,2.38,7.8,3.56,16.62,3.56,26.46v107.87h-16.29v-107.87c0-15.83-3.62-28.24-10.86-37.23-7.24-8.99-18.27-13.48-33.09-13.48-10.98,0-21.24,2.8-30.8,8.4-9.56,5.6-18.07,13.37-25.54,23.32v126.86h-16.29v-168.75h8.99c2.83,0,4.47,1.42,4.92,4.24l1.53,25.27Z"/><path class="cls-2" d="m2464.39,198.69v5.6c0,2.49-1.58,4.01-4.75,4.58l-25.79,1.87c3.17,4.3,5.6,9.1,7.3,14.42,1.7,5.32,2.54,11.08,2.54,17.3,0,8.14-1.44,15.52-4.33,22.13-2.88,6.62-6.96,12.27-12.22,16.96-5.26,4.69-11.6,8.34-19.01,10.94-7.41,2.6-15.59,3.9-24.52,3.9-9.62,0-18.39-1.47-26.3-4.41-4.75,2.71-8.51,5.91-11.28,9.58-2.77,3.67-4.16,7.32-4.16,10.94,0,4.86,1.72,8.59,5.18,11.19,3.45,2.6,7.98,4.49,13.58,5.68,5.6,1.19,11.99,1.95,19.18,2.29,7.18.34,14.51.71,21.98,1.1,7.47.4,14.79,1.1,21.98,2.12,7.18,1.02,13.58,2.8,19.18,5.34,5.6,2.54,10.12,6.11,13.58,10.69,3.45,4.58,5.18,10.66,5.18,18.23,0,7.01-1.76,13.74-5.26,20.18-3.51,6.44-8.57,12.15-15.19,17.13-6.62,4.97-14.62,8.96-24.01,11.96-9.39,3-19.91,4.5-31.56,4.5s-22.29-1.22-31.23-3.65c-8.94-2.43-16.43-5.71-22.48-9.84-6.05-4.13-10.61-8.9-13.66-14.33-3.05-5.43-4.58-11.19-4.58-17.3,0-8.93,2.94-16.59,8.82-22.98s13.92-11.39,24.1-15.01c-5.66-1.92-10.21-4.72-13.66-8.39-3.45-3.67-5.18-8.68-5.18-15.01,0-2.38.45-4.86,1.36-7.46.9-2.6,2.26-5.17,4.07-7.72,1.81-2.54,4.01-4.94,6.62-7.21,2.6-2.26,5.54-4.3,8.83-6.11-8.03-4.63-14.28-10.8-18.75-18.49-4.47-7.69-6.7-16.68-6.7-26.97,0-8.14,1.44-15.52,4.33-22.13,2.88-6.61,6.98-12.3,12.3-17.04,5.32-4.75,11.68-8.42,19.09-11.02,7.41-2.6,15.64-3.9,24.69-3.9,7.47,0,14.34.91,20.62,2.71,6.28,1.81,11.91,4.35,16.88,7.63h43.27Zm-17.65,172.65c0-5.32-1.39-9.58-4.16-12.8-2.78-3.22-6.48-5.74-11.12-7.55-4.64-1.81-9.99-3.08-16.04-3.82-6.05-.73-12.39-1.27-19.01-1.61-6.62-.34-13.27-.68-19.94-1.02-6.68-.34-12.96-1.02-18.84-2.04-4.3,1.7-8.26,3.65-11.88,5.85-3.62,2.2-6.73,4.72-9.33,7.55-2.61,2.83-4.64,5.91-6.11,9.24-1.47,3.33-2.21,6.92-2.21,10.77,0,4.97,1.27,9.58,3.82,13.82,2.54,4.24,6.28,7.91,11.2,11.02,4.92,3.11,10.95,5.57,18.07,7.38,7.13,1.81,15.33,2.71,24.61,2.71,8.59,0,16.6-.96,24.01-2.88,7.41-1.92,13.86-4.64,19.35-8.14,5.49-3.51,9.78-7.69,12.9-12.55,3.11-4.86,4.67-10.18,4.67-15.94Zm-63.13-85.99c7.24,0,13.69-1.04,19.35-3.14,5.66-2.09,10.41-5,14.25-8.73,3.84-3.73,6.79-8.2,8.82-13.4,2.04-5.2,3.05-10.97,3.05-17.3s-1.05-12.13-3.14-17.38c-2.09-5.26-5.09-9.75-8.99-13.48-3.9-3.73-8.66-6.61-14.25-8.65-5.6-2.04-11.96-3.05-19.09-3.05s-13.49,1.02-19.09,3.05c-5.6,2.04-10.35,4.92-14.25,8.65-3.9,3.73-6.87,8.23-8.91,13.48-2.04,5.26-3.05,11.05-3.05,17.38s1.02,12.1,3.05,17.3c2.04,5.2,5.01,9.67,8.91,13.4s8.65,6.64,14.25,8.73c5.6,2.09,11.96,3.14,19.09,3.14Z"/><path class="cls-2" d="m2496.23,215.14c8.82-8.82,18.1-15.49,27.83-20.01,9.73-4.52,20.76-6.78,33.09-6.78,9.05,0,16.97,1.44,23.76,4.32,6.79,2.88,12.42,7.01,16.88,12.38,4.47,5.37,7.83,11.87,10.1,19.5,2.26,7.63,3.39,16.14,3.39,25.53v109.9h-6.45c-3.39,0-5.49-1.58-6.28-4.75l-2.38-21.71c-4.64,4.52-9.25,8.59-13.83,12.21-4.58,3.62-9.36,6.67-14.34,9.16-4.98,2.49-10.35,4.41-16.12,5.77-5.77,1.36-12.11,2.04-19.01,2.04-5.77,0-11.37-.85-16.8-2.54-5.43-1.7-10.27-4.3-14.51-7.8-4.24-3.5-7.64-8-10.18-13.48-2.55-5.48-3.82-12.07-3.82-19.76,0-7.12,2.04-13.74,6.11-19.84,4.07-6.11,10.46-11.42,19.18-15.94,8.71-4.52,19.88-8.14,33.52-10.85s30.01-4.3,49.13-4.75v-17.64c0-15.6-3.37-27.62-10.1-36.04-6.73-8.42-16.71-12.64-29.95-12.64-8.15,0-15.08,1.13-20.79,3.39-5.71,2.26-10.55,4.75-14.51,7.46-3.96,2.71-7.19,5.2-9.67,7.46-2.49,2.26-4.58,3.39-6.28,3.39-1.25,0-2.26-.28-3.05-.85-.79-.56-1.47-1.3-2.04-2.21l-2.88-4.92Zm99.27,63.26c-16.07.57-29.9,1.84-41.49,3.82-11.6,1.98-21.16,4.66-28.68,8.06-7.53,3.39-13.1,7.44-16.71,12.13-3.62,4.69-5.43,10.04-5.43,16.03,0,5.66.93,10.54,2.8,14.67,1.87,4.13,4.35,7.52,7.47,10.18,3.11,2.66,6.7,4.61,10.78,5.85,4.07,1.25,8.32,1.87,12.73,1.87,6.56,0,12.58-.7,18.07-2.12,5.49-1.41,10.58-3.39,15.27-5.94,4.69-2.54,9.08-5.57,13.15-9.07,4.07-3.5,8.09-7.29,12.05-11.36v-44.1Z"/><path class="cls-2" d="m2797.1,198.69v5.6c0,2.49-1.58,4.01-4.75,4.58l-25.79,1.87c3.17,4.3,5.6,9.1,7.3,14.42,1.7,5.32,2.54,11.08,2.54,17.3,0,8.14-1.44,15.52-4.33,22.13-2.88,6.62-6.96,12.27-12.22,16.96-5.26,4.69-11.6,8.34-19.01,10.94-7.41,2.6-15.59,3.9-24.52,3.9-9.62,0-18.39-1.47-26.3-4.41-4.75,2.71-8.51,5.91-11.28,9.58-2.77,3.67-4.16,7.32-4.16,10.94,0,4.86,1.72,8.59,5.18,11.19,3.45,2.6,7.98,4.49,13.58,5.68,5.6,1.19,11.99,1.95,19.18,2.29,7.18.34,14.51.71,21.98,1.1,7.47.4,14.79,1.1,21.98,2.12,7.18,1.02,13.58,2.8,19.18,5.34,5.6,2.54,10.12,6.11,13.58,10.69,3.45,4.58,5.18,10.66,5.18,18.23,0,7.01-1.76,13.74-5.26,20.18-3.51,6.44-8.57,12.15-15.19,17.13-6.62,4.97-14.62,8.96-24.01,11.96-9.39,3-19.91,4.5-31.56,4.5s-22.29-1.22-31.23-3.65c-8.94-2.43-16.43-5.71-22.48-9.84-6.05-4.13-10.61-8.9-13.66-14.33-3.05-5.43-4.58-11.19-4.58-17.3,0-8.93,2.94-16.59,8.82-22.98,5.88-6.39,13.92-11.39,24.1-15.01-5.66-1.92-10.21-4.72-13.66-8.39-3.45-3.67-5.18-8.68-5.18-15.01,0-2.38.45-4.86,1.36-7.46.9-2.6,2.26-5.17,4.07-7.72,1.81-2.54,4.01-4.94,6.62-7.21,2.6-2.26,5.54-4.3,8.83-6.11-8.03-4.63-14.28-10.8-18.75-18.49-4.47-7.69-6.7-16.68-6.7-26.97,0-8.14,1.44-15.52,4.33-22.13,2.88-6.61,6.98-12.3,12.3-17.04,5.32-4.75,11.68-8.42,19.09-11.02,7.41-2.6,15.64-3.9,24.69-3.9,7.47,0,14.34.91,20.62,2.71,6.28,1.81,11.91,4.35,16.88,7.63h43.27Zm-17.65,172.65c0-5.32-1.39-9.58-4.16-12.8-2.78-3.22-6.48-5.74-11.12-7.55-4.64-1.81-9.99-3.08-16.04-3.82-6.05-.73-12.39-1.27-19.01-1.61-6.62-.34-13.27-.68-19.94-1.02-6.68-.34-12.96-1.02-18.84-2.04-4.3,1.7-8.26,3.65-11.88,5.85-3.62,2.2-6.73,4.72-9.33,7.55-2.61,2.83-4.64,5.91-6.11,9.24-1.47,3.33-2.21,6.92-2.21,10.77,0,4.97,1.27,9.58,3.82,13.82,2.54,4.24,6.28,7.91,11.2,11.02,4.92,3.11,10.95,5.57,18.07,7.38,7.13,1.81,15.33,2.71,24.61,2.71,8.59,0,16.6-.96,24.01-2.88,7.41-1.92,13.86-4.64,19.35-8.14,5.49-3.51,9.78-7.69,12.9-12.55,3.11-4.86,4.67-10.18,4.67-15.94Zm-63.13-85.99c7.24,0,13.69-1.04,19.35-3.14,5.66-2.09,10.41-5,14.25-8.73,3.84-3.73,6.79-8.2,8.82-13.4,2.04-5.2,3.05-10.97,3.05-17.3s-1.05-12.13-3.14-17.38c-2.09-5.26-5.09-9.75-8.99-13.48-3.9-3.73-8.66-6.61-14.25-8.65-5.6-2.04-11.96-3.05-19.09-3.05s-13.49,1.02-19.09,3.05c-5.6,2.04-10.35,4.92-14.25,8.65-3.9,3.73-6.87,8.23-8.91,13.48-2.04,5.26-3.05,11.05-3.05,17.38s1.02,12.1,3.05,17.3c2.04,5.2,5.01,9.67,8.91,13.4,3.9,3.73,8.65,6.64,14.25,8.73,5.6,2.09,11.96,3.14,19.09,3.14Z"/><path class="cls-2" d="m2832.73,268.91v3.22c0,12.66,1.47,23.8,4.41,33.41,2.94,9.61,7.13,17.67,12.56,24.17,5.43,6.5,11.99,11.39,19.69,14.67,7.69,3.28,16.29,4.92,25.79,4.92,8.49,0,15.84-.93,22.06-2.8,6.22-1.87,11.45-3.96,15.7-6.28,4.24-2.32,7.61-4.41,10.1-6.27,2.49-1.87,4.3-2.8,5.43-2.8,1.47,0,2.6.57,3.39,1.7l4.41,5.43c-2.72,3.39-6.31,6.56-10.78,9.5-4.47,2.94-9.45,5.46-14.93,7.55-5.49,2.09-11.37,3.76-17.65,5-6.28,1.24-12.59,1.87-18.92,1.87-11.54,0-22.06-2.01-31.57-6.02-9.5-4.01-17.65-9.86-24.44-17.55-6.79-7.69-12.02-17.1-15.7-28.24-3.68-11.13-5.51-23.88-5.51-38.24,0-12.1,1.72-23.26,5.17-33.5,3.45-10.23,8.43-19.05,14.93-26.46,6.5-7.4,14.48-13.2,23.93-17.38,9.44-4.18,20.16-6.28,32.16-6.28,9.5,0,18.33,1.64,26.47,4.92,8.15,3.28,15.21,8.06,21.21,14.33,6,6.28,10.72,13.99,14.17,23.15,3.45,9.16,5.17,19.67,5.17,31.55,0,2.49-.34,4.18-1.02,5.09-.68.91-1.81,1.36-3.39,1.36h-122.86Zm112.68-10.35c0-9.04-1.27-17.16-3.82-24.34-2.55-7.18-6.14-13.25-10.78-18.23-4.64-4.97-10.16-8.79-16.55-11.45-6.39-2.66-13.43-3.99-21.13-3.99-8.71,0-16.52,1.36-23.42,4.07s-12.87,6.61-17.9,11.7c-5.03,5.09-9.08,11.19-12.13,18.32-3.05,7.12-5.09,15.09-6.11,23.91h111.83Z"/><polygon class="cls-1" points="720 160 520 160 680 0 880 0 720 160"/></g></svg>