<?xml version="1.0" encoding="UTF-8"?><svg id="Ebene_2" xmlns="http://www.w3.org/2000/svg" viewBox="0 0 3120 480"><defs><style>.cls-1{fill:#fff;}.cls-2{fill:#d2c800;}</style></defs><g id="kk"><rect class="cls-1" width="160" height="320"/><polygon class="cls-1" points="520 160 320 160 160 320 320 480 520 480 360 320 520 160"/><polygon class="cls-1" points="720 160 520 160 680 320 880 320 720 160"/></g><g id="K_K_Horizons"><path class="cls-1" d="m1217.48,230.75h14.25c2.15,0,4.01-.08,5.6-.25,1.58-.17,3.02-.48,4.32-.93,1.3-.45,2.49-1.1,3.56-1.95,1.07-.85,2.23-1.89,3.48-3.14l96.85-99.55c1.7-1.92,3.36-3.22,5-3.9,1.64-.68,3.59-1.02,5.85-1.02h13.91l-104.83,107.7c-2.15,2.26-4.05,4.01-5.68,5.26-1.64,1.25-3.48,2.26-5.51,3.05,2.37.68,4.52,1.72,6.44,3.14,1.92,1.42,3.84,3.25,5.77,5.51l110.42,115.33h-14.08c-2.94,0-5.06-.37-6.36-1.1-1.3-.73-2.57-1.89-3.82-3.48l-101.43-103.79c-1.25-1.24-2.4-2.32-3.48-3.22-1.07-.9-2.26-1.67-3.56-2.29-1.3-.62-2.83-1.07-4.58-1.36-1.75-.28-3.98-.42-6.7-.42h-15.43v115.67h-17.47V120h17.47v110.75Z"/><path class="cls-1" d="m1598.21,359.98h-15.1c-2.04,0-3.7-.23-5-.68-1.3-.45-2.8-1.47-4.49-3.05l-34.77-34.09c-4.98,5.88-10.52,11.28-16.62,16.2s-12.72,9.19-19.85,12.8c-7.12,3.62-14.76,6.45-22.9,8.48s-16.68,3.05-25.61,3.05-16.85-1.42-25.11-4.24c-8.26-2.83-15.64-6.98-22.14-12.47-6.5-5.48-11.76-12.21-15.77-20.18-4.02-7.97-6.02-17.04-6.02-27.22,0-8.14,1.47-15.91,4.41-23.32,2.94-7.4,6.95-14.19,12.04-20.35,5.09-6.16,11.14-11.67,18.15-16.54,7.01-4.86,14.59-8.82,22.73-11.87-8.14-9.16-14.19-17.98-18.15-26.46-3.96-8.48-5.94-17.58-5.94-27.31,0-7.91,1.44-15.24,4.32-21.96,2.88-6.73,6.98-12.58,12.3-17.55,5.32-4.97,11.68-8.88,19.08-11.7,7.41-2.82,15.69-4.24,24.85-4.24,7.58,0,14.76,1.3,21.54,3.9,6.79,2.6,12.69,6.11,17.73,10.52,5.03,4.41,9.04,9.53,12.04,15.35,2.99,5.82,4.61,11.9,4.83,18.23l-9.16,1.87c-1.13.23-2.18.03-3.14-.59-.96-.62-1.72-1.72-2.29-3.31-.57-3.05-1.78-6.5-3.65-10.35-1.87-3.84-4.49-7.46-7.89-10.85-3.39-3.39-7.58-6.25-12.55-8.57-4.98-2.32-10.8-3.48-17.47-3.48s-12.95,1.05-18.49,3.14c-5.54,2.09-10.29,5.03-14.25,8.82-3.96,3.79-7.04,8.28-9.24,13.48-2.21,5.2-3.31,10.91-3.31,17.13,0,9.27,2.37,18.15,7.12,26.63,4.75,8.48,12.1,17.58,22.05,27.31l75.82,74.46c5.09-8.14,9.1-16.59,12.04-25.36,2.94-8.76,4.86-17.27,5.77-25.52.22-1.47.68-2.63,1.36-3.48.68-.85,1.7-1.27,3.05-1.27h9.33c-.23,10.63-2.21,21.57-5.94,32.82-3.73,11.25-9.1,22.02-16.11,32.31l50.38,49.52Zm-148.25-125.17c-7.46,3.05-14.22,6.78-20.27,11.19-6.05,4.41-11.17,9.33-15.35,14.76-4.18,5.43-7.41,11.25-9.67,17.47-2.26,6.22-3.39,12.66-3.39,19.33,0,8.71,1.67,16.28,5,22.73,3.33,6.45,7.66,11.85,12.97,16.2,5.32,4.35,11.22,7.61,17.73,9.75,6.5,2.15,12.92,3.22,19.25,3.22,8.03,0,15.58-.9,22.65-2.71,7.07-1.81,13.65-4.33,19.76-7.55,6.11-3.22,11.76-7.06,16.96-11.53,5.2-4.47,9.89-9.3,14.08-14.5l-77.86-76.49-1.87-1.87Z"/><path class="cls-1" d="m1647.43,230.75h14.25c2.15,0,4.01-.08,5.6-.25,1.58-.17,3.02-.48,4.32-.93,1.3-.45,2.49-1.1,3.56-1.95,1.07-.85,2.23-1.89,3.48-3.14l96.85-99.55c1.7-1.92,3.36-3.22,5-3.9,1.64-.68,3.59-1.02,5.85-1.02h13.91l-104.83,107.7c-2.15,2.26-4.05,4.01-5.68,5.26-1.64,1.25-3.48,2.26-5.51,3.05,2.37.68,4.52,1.72,6.44,3.14,1.92,1.42,3.84,3.25,5.77,5.51l110.42,115.33h-14.08c-2.94,0-5.06-.37-6.36-1.1-1.3-.73-2.57-1.89-3.82-3.48l-101.43-103.79c-1.25-1.24-2.4-2.32-3.48-3.22-1.07-.9-2.26-1.67-3.56-2.29-1.3-.62-2.83-1.07-4.58-1.36-1.75-.28-3.98-.42-6.7-.42h-15.43v115.67h-17.47V120h17.47v110.75Z"/><path class="cls-1" d="m2120.67,120v239.98h-17.47v-114.99h-150.29v114.99h-17.47V120h17.47v111.94h150.29v-111.94h17.47Z"/><path class="cls-1" d="m2241.17,188.52c12.1,0,22.93,2.06,32.48,6.19,9.55,4.13,17.61,9.98,24.17,17.55,6.56,7.58,11.56,16.71,15.01,27.39,3.45,10.68,5.17,22.64,5.17,35.87s-1.72,25.16-5.17,35.79c-3.45,10.63-8.45,19.73-15.01,27.31-6.56,7.58-14.62,13.4-24.17,17.47-9.56,4.07-20.38,6.11-32.48,6.11s-22.93-2.04-32.48-6.11c-9.56-4.07-17.64-9.89-24.26-17.47-6.61-7.57-11.65-16.68-15.1-27.31-3.45-10.63-5.17-22.56-5.17-35.79s1.72-25.19,5.17-35.87c3.45-10.68,8.48-19.81,15.1-27.39,6.62-7.57,14.7-13.42,24.26-17.55,9.55-4.13,20.38-6.19,32.48-6.19Zm0,160.95c10.06,0,18.85-1.72,26.38-5.17,7.52-3.45,13.79-8.39,18.83-14.84,5.03-6.44,8.79-14.22,11.28-23.32,2.49-9.1,3.73-19.31,3.73-30.61s-1.25-21.37-3.73-30.53c-2.49-9.16-6.25-16.99-11.28-23.49-5.03-6.5-11.31-11.5-18.83-15.01-7.52-3.5-16.31-5.26-26.38-5.26s-18.86,1.75-26.37,5.26c-7.52,3.51-13.8,8.51-18.83,15.01-5.03,6.5-8.82,14.33-11.36,23.49-2.54,9.16-3.82,19.33-3.82,30.53s1.27,21.51,3.82,30.61c2.55,9.1,6.33,16.88,11.36,23.32,5.03,6.45,11.31,11.39,18.83,14.84,7.52,3.45,16.31,5.17,26.37,5.17Z"/><path class="cls-1" d="m2369.5,231.94c2.6-6.9,5.57-13.03,8.91-18.4,3.33-5.37,7.18-9.92,11.53-13.65,4.35-3.73,9.21-6.58,14.59-8.56,5.37-1.98,11.34-2.97,17.9-2.97,3.5,0,6.96.31,10.35.93,3.39.62,6.39,1.72,8.99,3.31l-1.36,11.19c-.57,1.81-1.64,2.71-3.22,2.71-1.36,0-3.42-.39-6.19-1.19-2.77-.79-6.42-1.19-10.94-1.19-6.56,0-12.36.99-17.39,2.97-5.03,1.98-9.56,4.95-13.57,8.9-4.01,3.96-7.52,8.85-10.52,14.67-3,5.83-5.74,12.52-8.23,20.1v109.22h-16.28v-168.75h8.65c1.92,0,3.28.4,4.07,1.19.79.79,1.3,2.15,1.53,4.07l1.19,35.45Z"/><path class="cls-1" d="m2491.76,133.06c0,2.04-.42,3.93-1.27,5.68-.85,1.75-1.95,3.31-3.31,4.66-1.36,1.36-2.94,2.43-4.75,3.22-1.81.79-3.73,1.19-5.77,1.19s-3.96-.39-5.77-1.19c-1.81-.79-3.39-1.87-4.75-3.22-1.36-1.36-2.43-2.91-3.22-4.66-.79-1.75-1.19-3.65-1.19-5.68s.39-3.99,1.19-5.85c.79-1.87,1.87-3.48,3.22-4.83,1.36-1.36,2.94-2.43,4.75-3.22,1.81-.79,3.73-1.19,5.77-1.19s3.96.4,5.77,1.19c1.81.79,3.39,1.87,4.75,3.22,1.36,1.36,2.46,2.97,3.31,4.83.85,1.87,1.27,3.82,1.27,5.85Zm-6.95,58.17v168.75h-16.11v-168.75h16.11Z"/><path class="cls-1" d="m2642.18,191.23v6.78c0,2.37-.79,4.52-2.38,6.44l-105.68,142.8h103.81v12.72h-123.32v-6.44c0-1.92.85-4.01,2.55-6.28l106.01-143.31h-102.96v-12.72h121.96Z"/><path class="cls-1" d="m2731.27,188.52c12.1,0,22.93,2.06,32.48,6.19,9.55,4.13,17.61,9.98,24.17,17.55,6.56,7.58,11.56,16.71,15.01,27.39,3.45,10.68,5.17,22.64,5.17,35.87s-1.73,25.16-5.17,35.79c-3.45,10.63-8.45,19.73-15.01,27.31-6.56,7.58-14.62,13.4-24.17,17.47-9.56,4.07-20.38,6.11-32.48,6.11s-22.93-2.04-32.48-6.11c-9.56-4.07-17.64-9.89-24.26-17.47-6.62-7.57-11.65-16.68-15.1-27.31-3.45-10.63-5.17-22.56-5.17-35.79s1.72-25.19,5.17-35.87c3.45-10.68,8.48-19.81,15.1-27.39,6.61-7.57,14.7-13.42,24.26-17.55,9.55-4.13,20.38-6.19,32.48-6.19Zm0,160.95c10.06,0,18.85-1.72,26.38-5.17,7.52-3.45,13.79-8.39,18.83-14.84,5.03-6.44,8.79-14.22,11.28-23.32,2.48-9.1,3.73-19.31,3.73-30.61s-1.25-21.37-3.73-30.53c-2.49-9.16-6.25-16.99-11.28-23.49-5.03-6.5-11.31-11.5-18.83-15.01-7.52-3.5-16.31-5.26-26.38-5.26s-18.86,1.75-26.38,5.26c-7.52,3.51-13.8,8.51-18.83,15.01-5.03,6.5-8.82,14.33-11.36,23.49-2.55,9.16-3.82,19.33-3.82,30.53s1.27,21.51,3.82,30.61c2.54,9.1,6.33,16.88,11.36,23.32,5.03,6.45,11.31,11.39,18.83,14.84,7.52,3.45,16.31,5.17,26.38,5.17Z"/><path class="cls-1" d="m2859.6,220.74c7.8-9.72,16.82-17.52,27.05-23.41,10.23-5.88,21.63-8.82,34.18-8.82,9.27,0,17.44,1.47,24.51,4.41,7.07,2.94,12.92,7.18,17.56,12.72,4.64,5.54,8.14,12.21,10.52,20.01,2.38,7.8,3.56,16.62,3.56,26.46v107.87h-16.28v-107.87c0-15.83-3.62-28.24-10.86-37.23-7.24-8.99-18.26-13.48-33.08-13.48-10.97,0-21.23,2.8-30.79,8.4-9.56,5.6-18.07,13.37-25.53,23.32v126.86h-16.28v-168.75h8.99c2.82,0,4.47,1.42,4.92,4.24l1.53,25.27Z"/><path class="cls-1" d="m3112.54,212.09c-.91,1.58-2.2,2.38-3.9,2.38-1.24,0-2.83-.71-4.75-2.12-1.92-1.41-4.49-2.99-7.72-4.75-3.22-1.75-7.21-3.33-11.96-4.75-4.75-1.41-10.52-2.12-17.3-2.12-6.11,0-11.68.88-16.71,2.63-5.03,1.75-9.33,4.1-12.89,7.04-3.56,2.94-6.3,6.36-8.23,10.26-1.92,3.9-2.88,8-2.88,12.3,0,5.32,1.36,9.73,4.07,13.23,2.71,3.51,6.25,6.5,10.6,8.99,4.35,2.49,9.35,4.64,15.01,6.44,5.65,1.81,11.39,3.62,17.22,5.43,5.82,1.81,11.56,3.82,17.22,6.02,5.65,2.21,10.66,4.95,15.01,8.23,4.35,3.28,7.89,7.29,10.6,12.04,2.71,4.75,4.07,10.51,4.07,17.3,0,7.35-1.3,14.19-3.9,20.52-2.6,6.33-6.42,11.82-11.45,16.45-5.03,4.64-11.22,8.31-18.57,11.02-7.35,2.71-15.77,4.07-25.27,4.07-11.87,0-22.11-1.89-30.7-5.68-8.59-3.79-16.28-8.73-23.07-14.84l3.73-5.77c.56-.9,1.21-1.58,1.95-2.04.73-.45,1.72-.68,2.97-.68,1.47,0,3.25.91,5.34,2.71,2.09,1.81,4.89,3.76,8.4,5.85,3.5,2.09,7.83,4.04,12.97,5.85,5.15,1.81,11.51,2.71,19.08,2.71,7.12,0,13.4-.99,18.83-2.97,5.43-1.98,9.95-4.66,13.57-8.06,3.62-3.39,6.36-7.38,8.23-11.96,1.87-4.58,2.8-9.41,2.8-14.5,0-5.65-1.36-10.35-4.07-14.08s-6.28-6.9-10.69-9.5c-4.41-2.6-9.41-4.8-15.01-6.61-5.6-1.81-11.34-3.62-17.22-5.43-5.88-1.81-11.62-3.79-17.22-5.94-5.6-2.15-10.6-4.86-15.01-8.14-4.41-3.28-7.97-7.26-10.69-11.96-2.72-4.69-4.07-10.54-4.07-17.55,0-5.99,1.3-11.76,3.9-17.3,2.6-5.54,6.3-10.4,11.11-14.58,4.8-4.18,10.66-7.52,17.56-10.01,6.9-2.49,14.64-3.73,23.24-3.73,10.29,0,19.42,1.47,27.39,4.41,7.97,2.94,15.24,7.46,21.8,13.57l-3.39,5.6Z"/><polygon class="cls-2" points="720 160 520 160 680 0 880 0 720 160"/></g></svg>