<?xml version="1.0" encoding="UTF-8"?><svg id="Ebene_2" xmlns="http://www.w3.org/2000/svg" viewBox="0 0 4560 480"><defs><style>.cls-1{fill:#828282;}</style></defs><g id="kk"><rect width="160" height="320"/><polygon points="520 160 320 160 160 320 320 480 520 480 360 320 520 160"/><polygon points="720 160 520 160 680 320 880 320 720 160"/></g><g id="K_K_Mentoring_Gruppe"><path d="m1217.48,230.75h14.25c2.15,0,4.01-.08,5.6-.25,1.58-.17,3.02-.48,4.33-.93,1.3-.45,2.49-1.1,3.56-1.95,1.07-.85,2.23-1.89,3.48-3.14l96.89-99.55c1.7-1.92,3.36-3.22,5.01-3.9,1.64-.68,3.59-1.02,5.85-1.02h13.91l-104.86,107.7c-2.15,2.26-4.05,4.01-5.68,5.26-1.64,1.25-3.48,2.26-5.51,3.05,2.37.68,4.52,1.72,6.45,3.14,1.92,1.42,3.85,3.25,5.77,5.51l110.46,115.33h-14.08c-2.94,0-5.06-.37-6.36-1.1-1.3-.73-2.57-1.89-3.82-3.48l-101.47-103.79c-1.25-1.24-2.41-2.32-3.48-3.22-1.07-.9-2.26-1.67-3.56-2.29-1.3-.62-2.83-1.07-4.58-1.36-1.75-.28-3.99-.42-6.7-.42h-15.44v115.67h-17.48V120h17.48v110.75Z"/><path d="m1602.07,359.98h-15.1c-2.04,0-3.71-.23-5.01-.68-1.3-.45-2.8-1.47-4.5-3.05l-34.78-34.09c-4.98,5.88-10.52,11.28-16.63,16.2-6.11,4.92-12.72,9.19-19.85,12.8-7.13,3.62-14.76,6.45-22.91,8.48s-16.69,3.05-25.62,3.05-16.86-1.42-25.11-4.24c-8.26-2.83-15.64-6.98-22.14-12.47-6.51-5.48-11.77-12.21-15.78-20.18-4.02-7.97-6.02-17.04-6.02-27.22,0-8.14,1.47-15.91,4.41-23.32,2.94-7.4,6.96-14.19,12.05-20.35,5.09-6.16,11.14-11.67,18.16-16.54,7.01-4.86,14.59-8.82,22.74-11.87-8.15-9.16-14.2-17.98-18.16-26.46-3.96-8.48-5.94-17.58-5.94-27.31,0-7.91,1.44-15.24,4.33-21.96,2.89-6.73,6.98-12.58,12.3-17.55,5.32-4.97,11.68-8.88,19.09-11.7,7.41-2.82,15.7-4.24,24.86-4.24,7.58,0,14.76,1.3,21.55,3.9,6.79,2.6,12.7,6.11,17.73,10.52,5.03,4.41,9.05,9.53,12.05,15.35,3,5.82,4.61,11.9,4.84,18.23l-9.16,1.87c-1.13.23-2.18.03-3.14-.59-.96-.62-1.73-1.72-2.29-3.31-.57-3.05-1.78-6.5-3.65-10.35-1.87-3.84-4.5-7.46-7.89-10.85-3.39-3.39-7.58-6.25-12.56-8.57-4.98-2.32-10.8-3.48-17.48-3.48s-12.95,1.05-18.5,3.14c-5.54,2.09-10.29,5.03-14.25,8.82-3.96,3.79-7.04,8.28-9.25,13.48-2.2,5.2-3.31,10.91-3.31,17.13,0,9.27,2.38,18.15,7.13,26.63,4.75,8.48,12.1,17.58,22.06,27.31l75.85,74.46c5.09-8.14,9.1-16.59,12.05-25.36,2.94-8.76,4.86-17.27,5.77-25.52.23-1.47.68-2.63,1.36-3.48.68-.85,1.7-1.27,3.05-1.27h9.33c-.23,10.63-2.21,21.57-5.94,32.82-3.73,11.25-9.11,22.02-16.12,32.31l50.4,49.52Zm-148.3-125.17c-7.47,3.05-14.23,6.78-20.28,11.19-6.05,4.41-11.17,9.33-15.36,14.76-4.19,5.43-7.41,11.25-9.67,17.47-2.26,6.22-3.39,12.66-3.39,19.33,0,8.71,1.67,16.28,5.01,22.73,3.34,6.45,7.66,11.85,12.98,16.2,5.32,4.35,11.23,7.61,17.73,9.75,6.5,2.15,12.92,3.22,19.26,3.22,8.03,0,15.58-.9,22.65-2.71,7.07-1.81,13.66-4.33,19.77-7.55,6.11-3.22,11.76-7.06,16.97-11.53,5.2-4.47,9.9-9.3,14.08-14.5l-77.88-76.49-1.87-1.87Z"/><path d="m1655.04,230.75h14.25c2.15,0,4.01-.08,5.6-.25,1.58-.17,3.02-.48,4.33-.93,1.3-.45,2.49-1.1,3.56-1.95,1.07-.85,2.23-1.89,3.48-3.14l96.89-99.55c1.7-1.92,3.36-3.22,5.01-3.9,1.64-.68,3.59-1.02,5.85-1.02h13.91l-104.86,107.7c-2.15,2.26-4.04,4.01-5.68,5.26-1.64,1.25-3.48,2.26-5.51,3.05,2.38.68,4.52,1.72,6.45,3.14,1.92,1.42,3.84,3.25,5.77,5.51l110.46,115.33h-14.08c-2.94,0-5.06-.37-6.36-1.1-1.3-.73-2.58-1.89-3.82-3.48l-101.47-103.79c-1.25-1.24-2.41-2.32-3.48-3.22-1.08-.9-2.26-1.67-3.56-2.29-1.3-.62-2.83-1.07-4.58-1.36-1.75-.28-3.99-.42-6.7-.42h-15.44v115.67h-17.48V120h17.48v110.75Z"/><path d="m2187.83,120v239.98h-15.1v-204.54c0-2.94.17-6.05.51-9.33l-94.51,167.73c-1.59,2.94-3.85,4.41-6.79,4.41h-2.71c-2.94,0-5.21-1.47-6.79-4.41l-97.06-168.07c.34,3.39.51,6.61.51,9.67v204.54h-15.27V120h12.05c1.58,0,2.83.17,3.73.51.9.34,1.81,1.25,2.72,2.71l96.89,166.89c1.7,3.17,3.17,6.56,4.41,10.18.68-1.81,1.41-3.59,2.21-5.34.79-1.75,1.64-3.42,2.54-5l94.17-166.72c.9-1.47,1.84-2.37,2.8-2.71.96-.34,2.23-.51,3.82-.51h11.88Z"/><path d="m2251.02,268.91v3.22c0,12.66,1.47,23.8,4.41,33.41,2.94,9.61,7.13,17.67,12.56,24.17,5.43,6.5,11.99,11.39,19.68,14.67,7.69,3.28,16.29,4.92,25.79,4.92,8.48,0,15.84-.93,22.06-2.8,6.22-1.87,11.45-3.96,15.7-6.28,4.24-2.32,7.61-4.41,10.1-6.27,2.49-1.87,4.3-2.8,5.43-2.8,1.47,0,2.6.57,3.39,1.7l4.41,5.43c-2.72,3.39-6.31,6.56-10.77,9.5-4.47,2.94-9.45,5.46-14.93,7.55-5.49,2.09-11.37,3.76-17.65,5-6.28,1.24-12.59,1.87-18.92,1.87-11.54,0-22.06-2.01-31.56-6.02-9.5-4.01-17.65-9.86-24.43-17.55-6.79-7.69-12.02-17.1-15.7-28.24-3.68-11.13-5.51-23.88-5.51-38.24,0-12.1,1.72-23.26,5.17-33.5,3.45-10.23,8.43-19.05,14.93-26.46,6.5-7.4,14.48-13.2,23.93-17.38,9.44-4.18,20.16-6.28,32.15-6.28,9.5,0,18.33,1.64,26.47,4.92,8.14,3.28,15.21,8.06,21.21,14.33,6,6.28,10.72,13.99,14.17,23.15,3.45,9.16,5.17,19.67,5.17,31.55,0,2.49-.34,4.18-1.02,5.09-.68.91-1.81,1.36-3.39,1.36h-122.85Zm112.67-10.35c0-9.04-1.27-17.16-3.82-24.34-2.55-7.18-6.14-13.25-10.77-18.23-4.64-4.97-10.16-8.79-16.55-11.45-6.39-2.66-13.43-3.99-21.13-3.99-8.71,0-16.52,1.36-23.42,4.07s-12.87,6.61-17.9,11.7c-5.03,5.09-9.08,11.19-12.13,18.32-3.05,7.12-5.09,15.09-6.11,23.91h111.82Z"/><path d="m2430.31,220.74c7.8-9.72,16.82-17.52,27.06-23.41,10.24-5.88,21.63-8.82,34.19-8.82,9.27,0,17.45,1.47,24.52,4.41,7.07,2.94,12.92,7.18,17.56,12.72,4.64,5.54,8.14,12.21,10.52,20.01,2.38,7.8,3.56,16.62,3.56,26.46v107.87h-16.29v-107.87c0-15.83-3.62-28.24-10.86-37.23-7.24-8.99-18.27-13.48-33.09-13.48-10.97,0-21.24,2.8-30.8,8.4-9.56,5.6-18.07,13.37-25.54,23.32v126.86h-16.29v-168.75h8.99c2.83,0,4.47,1.42,4.92,4.24l1.53,25.27Z"/><path d="m2638.36,362.7c-11.43,0-20.34-3.16-26.73-9.5-6.39-6.33-9.59-16.11-9.59-29.34v-115.33h-24.26c-1.25,0-2.26-.34-3.05-1.02-.79-.68-1.19-1.64-1.19-2.88v-6.28l28.85-2.04,4.07-60.38c.22-1.02.68-1.92,1.36-2.71.68-.79,1.64-1.19,2.89-1.19h7.63v64.45h53.28v12.04h-53.28v114.48c0,4.64.59,8.62,1.78,11.96,1.19,3.34,2.83,6.08,4.92,8.23,2.09,2.15,4.55,3.73,7.38,4.75s5.88,1.53,9.16,1.53c4.07,0,7.58-.59,10.52-1.78,2.94-1.19,5.49-2.49,7.64-3.9,2.15-1.41,3.9-2.71,5.26-3.9,1.36-1.19,2.43-1.78,3.22-1.78.9,0,1.81.57,2.72,1.7l4.41,7.12c-4.3,4.75-9.76,8.57-16.37,11.45-6.62,2.88-13.49,4.33-20.62,4.33Z"/><path d="m2766.81,188.52c12.1,0,22.93,2.06,32.49,6.19,9.56,4.13,17.62,9.98,24.18,17.55,6.56,7.58,11.57,16.71,15.02,27.39,3.45,10.68,5.18,22.64,5.18,35.87s-1.73,25.16-5.18,35.79c-3.45,10.63-8.46,19.73-15.02,27.31-6.56,7.58-14.62,13.4-24.18,17.47-9.56,4.07-20.39,6.11-32.49,6.11s-22.94-2.04-32.49-6.11c-9.56-4.07-17.65-9.89-24.26-17.47-6.62-7.57-11.65-16.68-15.1-27.31-3.45-10.63-5.17-22.56-5.17-35.79s1.72-25.19,5.17-35.87c3.45-10.68,8.48-19.81,15.1-27.39,6.62-7.57,14.7-13.42,24.26-17.55,9.56-4.13,20.39-6.19,32.49-6.19Zm0,160.95c10.07,0,18.86-1.72,26.39-5.17,7.52-3.45,13.8-8.39,18.83-14.84,5.03-6.44,8.8-14.22,11.28-23.32,2.49-9.1,3.73-19.31,3.73-30.61s-1.25-21.37-3.73-30.53c-2.49-9.16-6.25-16.99-11.28-23.49-5.03-6.5-11.31-11.5-18.83-15.01-7.53-3.5-16.32-5.26-26.39-5.26s-18.86,1.75-26.39,5.26c-7.52,3.51-13.8,8.51-18.84,15.01-5.03,6.5-8.82,14.33-11.37,23.49-2.55,9.16-3.82,19.33-3.82,30.53s1.27,21.51,3.82,30.61c2.54,9.1,6.33,16.88,11.37,23.32,5.03,6.45,11.31,11.39,18.84,14.84,7.52,3.45,16.32,5.17,26.39,5.17Z"/><path d="m2898.92,231.94c2.6-6.9,5.57-13.03,8.91-18.4,3.34-5.37,7.18-9.92,11.54-13.65,4.35-3.73,9.22-6.58,14.59-8.56,5.37-1.98,11.34-2.97,17.9-2.97,3.51,0,6.96.31,10.35.93,3.39.62,6.39,1.72,8.99,3.31l-1.36,11.19c-.57,1.81-1.64,2.71-3.22,2.71-1.36,0-3.42-.39-6.19-1.19-2.77-.79-6.42-1.19-10.94-1.19-6.56,0-12.36.99-17.39,2.97-5.03,1.98-9.56,4.95-13.57,8.9-4.02,3.96-7.52,8.85-10.52,14.67-3,5.83-5.74,12.52-8.23,20.1v109.22h-16.29v-168.75h8.65c1.92,0,3.28.4,4.07,1.19.79.79,1.3,2.15,1.53,4.07l1.19,35.45Z"/><path d="m3024.96,133.06c0,2.04-.42,3.93-1.27,5.68-.85,1.75-1.95,3.31-3.31,4.66-1.36,1.36-2.94,2.43-4.75,3.22-1.81.79-3.73,1.19-5.77,1.19s-3.96-.39-5.77-1.19c-1.81-.79-3.39-1.87-4.75-3.22-1.36-1.36-2.43-2.91-3.22-4.66-.79-1.75-1.19-3.65-1.19-5.68s.39-3.99,1.19-5.85c.79-1.87,1.87-3.48,3.22-4.83,1.36-1.36,2.94-2.43,4.75-3.22,1.81-.79,3.73-1.19,5.77-1.19s3.96.4,5.77,1.19c1.81.79,3.39,1.87,4.75,3.22,1.36,1.36,2.46,2.97,3.31,4.83.85,1.87,1.27,3.82,1.27,5.85Zm-6.96,58.17v168.75h-16.12v-168.75h16.12Z"/><path d="m3082.95,220.74c7.8-9.72,16.82-17.52,27.06-23.41,10.24-5.88,21.63-8.82,34.19-8.82,9.27,0,17.45,1.47,24.52,4.41,7.07,2.94,12.92,7.18,17.56,12.72,4.64,5.54,8.14,12.21,10.52,20.01,2.38,7.8,3.56,16.62,3.56,26.46v107.87h-16.29v-107.87c0-15.83-3.62-28.24-10.86-37.23-7.24-8.99-18.27-13.48-33.09-13.48-10.97,0-21.24,2.8-30.8,8.4-9.56,5.6-18.07,13.37-25.54,23.32v126.86h-16.29v-168.75h8.99c2.83,0,4.47,1.42,4.92,4.24l1.53,25.27Z"/><path d="m3382.26,198.69v5.6c0,2.49-1.58,4.01-4.75,4.58l-25.79,1.87c3.17,4.3,5.6,9.1,7.3,14.42,1.7,5.32,2.54,11.08,2.54,17.3,0,8.14-1.44,15.52-4.33,22.13-2.88,6.62-6.96,12.27-12.22,16.96-5.26,4.69-11.6,8.34-19.01,10.94-7.41,2.6-15.58,3.9-24.52,3.9-9.62,0-18.38-1.47-26.3-4.41-4.75,2.71-8.51,5.91-11.28,9.58-2.77,3.67-4.16,7.32-4.16,10.94,0,4.86,1.72,8.59,5.18,11.19,3.45,2.6,7.97,4.49,13.57,5.68,5.6,1.19,11.99,1.95,19.17,2.29,7.18.34,14.51.71,21.97,1.1,7.47.4,14.79,1.1,21.97,2.12,7.18,1.02,13.57,2.8,19.17,5.34,5.6,2.54,10.12,6.11,13.57,10.69,3.45,4.58,5.18,10.66,5.18,18.23,0,7.01-1.76,13.74-5.26,20.18-3.51,6.44-8.57,12.15-15.19,17.13-6.62,4.97-14.62,8.96-24.01,11.96-9.39,3-19.91,4.5-31.56,4.5s-22.29-1.22-31.22-3.65c-8.94-2.43-16.43-5.71-22.48-9.84-6.05-4.13-10.6-8.9-13.66-14.33-3.05-5.43-4.58-11.19-4.58-17.3,0-8.93,2.94-16.59,8.82-22.98s13.91-11.39,24.1-15.01c-5.66-1.92-10.21-4.72-13.66-8.39-3.45-3.67-5.18-8.68-5.18-15.01,0-2.38.45-4.86,1.36-7.46.9-2.6,2.26-5.17,4.07-7.72,1.81-2.54,4.01-4.94,6.62-7.21,2.6-2.26,5.54-4.3,8.82-6.11-8.03-4.63-14.28-10.8-18.75-18.49-4.47-7.69-6.7-16.68-6.7-26.97,0-8.14,1.44-15.52,4.33-22.13,2.88-6.61,6.98-12.3,12.3-17.04,5.32-4.75,11.68-8.42,19.09-11.02,7.41-2.6,15.64-3.9,24.69-3.9,7.46,0,14.34.91,20.62,2.71,6.28,1.81,11.9,4.35,16.88,7.63h43.27Zm-17.65,172.65c0-5.32-1.39-9.58-4.16-12.8-2.77-3.22-6.48-5.74-11.11-7.55-4.64-1.81-9.99-3.08-16.04-3.82-6.05-.73-12.39-1.27-19-1.61-6.62-.34-13.26-.68-19.94-1.02-6.68-.34-12.96-1.02-18.84-2.04-4.3,1.7-8.26,3.65-11.88,5.85-3.62,2.2-6.73,4.72-9.33,7.55-2.6,2.83-4.64,5.91-6.11,9.24-1.47,3.33-2.21,6.92-2.21,10.77,0,4.97,1.27,9.58,3.82,13.82,2.54,4.24,6.28,7.91,11.2,11.02,4.92,3.11,10.94,5.57,18.07,7.38,7.13,1.81,15.33,2.71,24.6,2.71,8.59,0,16.6-.96,24.01-2.88,7.41-1.92,13.85-4.64,19.34-8.14,5.49-3.51,9.78-7.69,12.89-12.55,3.11-4.86,4.67-10.18,4.67-15.94Zm-63.12-85.99c7.24,0,13.68-1.04,19.34-3.14,5.66-2.09,10.41-5,14.25-8.73,3.84-3.73,6.79-8.2,8.82-13.4,2.04-5.2,3.05-10.97,3.05-17.3s-1.05-12.13-3.14-17.38c-2.09-5.26-5.09-9.75-8.99-13.48-3.9-3.73-8.65-6.61-14.25-8.65-5.6-2.04-11.96-3.05-19.09-3.05s-13.49,1.02-19.09,3.05c-5.6,2.04-10.35,4.92-14.25,8.65-3.9,3.73-6.87,8.23-8.91,13.48-2.04,5.26-3.05,11.05-3.05,17.38s1.02,12.1,3.05,17.3c2.04,5.2,5.01,9.67,8.91,13.4s8.65,6.64,14.25,8.73c5.6,2.09,11.96,3.14,19.09,3.14Z"/><path d="m3716.53,251.1v85.31c-11.99,8.48-24.77,14.98-38.35,19.5-13.57,4.52-28.84,6.78-45.81,6.78-19,0-36.09-2.91-51.24-8.73-15.16-5.82-28.08-14.08-38.77-24.76-10.69-10.68-18.89-23.6-24.6-38.75-5.71-15.15-8.57-32-8.57-50.54s2.8-35.36,8.4-50.46c5.6-15.09,13.63-27.98,24.09-38.67,10.46-10.69,23.1-18.94,37.92-24.76,14.82-5.82,31.5-8.73,50.06-8.73,9.16,0,17.62.62,25.37,1.87,7.75,1.25,14.96,3.08,21.64,5.51,6.67,2.43,12.89,5.43,18.67,8.99,5.77,3.56,11.31,7.66,16.63,12.3l-4.75,7.46c-1.58,2.71-3.96,3.34-7.13,1.87-1.7-.68-4.13-2.26-7.3-4.75-3.17-2.49-7.52-5.09-13.06-7.8-5.54-2.71-12.42-5.14-20.62-7.29-8.2-2.15-18.19-3.22-29.95-3.22-15.61,0-29.72,2.49-42.33,7.46-12.62,4.98-23.36,12.1-32.24,21.37-8.88,9.27-15.73,20.58-20.53,33.92-4.81,13.34-7.21,28.32-7.21,44.94s2.4,32,7.21,45.45c4.81,13.46,11.76,24.88,20.87,34.26,9.1,9.39,20.16,16.57,33.17,21.54,13.01,4.98,27.66,7.46,43.95,7.46,7.13,0,13.72-.45,19.77-1.36,6.05-.9,11.82-2.18,17.31-3.82,5.49-1.64,10.8-3.67,15.95-6.11,5.15-2.43,10.38-5.17,15.7-8.23v-64.62h-45.98c-1.24,0-2.29-.4-3.14-1.19-.85-.79-1.27-1.7-1.27-2.71v-9.5h66.17Z"/><path d="m3779.78,231.94c2.6-6.9,5.57-13.03,8.91-18.4,3.34-5.37,7.18-9.92,11.54-13.65,4.35-3.73,9.22-6.58,14.59-8.56,5.37-1.98,11.34-2.97,17.9-2.97,3.5,0,6.96.31,10.35.93,3.39.62,6.39,1.72,8.99,3.31l-1.36,11.19c-.57,1.81-1.64,2.71-3.22,2.71-1.36,0-3.42-.39-6.19-1.19-2.77-.79-6.42-1.19-10.94-1.19-6.56,0-12.36.99-17.39,2.97-5.04,1.98-9.56,4.95-13.57,8.9-4.02,3.96-7.53,8.85-10.52,14.67-3,5.83-5.74,12.52-8.23,20.1v109.22h-16.29v-168.75h8.65c1.92,0,3.28.4,4.07,1.19.79.79,1.3,2.15,1.53,4.07l1.19,35.45Z"/><path d="m4013.9,191.23v168.75h-8.99c-2.83,0-4.47-1.47-4.92-4.41l-1.53-25.1c-7.8,9.73-16.83,17.53-27.06,23.41-10.24,5.88-21.63,8.82-34.19,8.82-9.39,0-17.59-1.47-24.6-4.41-7.02-2.94-12.84-7.18-17.48-12.72-4.64-5.54-8.14-12.21-10.52-20.01-2.37-7.8-3.56-16.62-3.56-26.46v-107.87h16.29v107.87c0,15.83,3.62,28.24,10.86,37.23,7.24,8.99,18.27,13.48,33.09,13.48,10.97,0,21.24-2.8,30.8-8.4,9.56-5.6,18.07-13.37,25.54-23.32v-126.86h16.29Z"/><path d="m4078.04,221.59c7.47-10.18,16.21-18.26,26.22-24.25,10.01-5.99,21.24-8.99,33.68-8.99,20.7,0,36.85,7.18,48.44,21.54,11.59,14.36,17.39,35.9,17.39,64.62,0,12.33-1.61,23.83-4.84,34.51-3.22,10.68-7.97,19.96-14.25,27.81-6.28,7.86-13.97,14.05-23.08,18.57-9.11,4.52-19.6,6.78-31.48,6.78s-21.32-2.09-29.69-6.28c-8.37-4.18-15.61-10.35-21.72-18.49v82.26h-16.29v-228.45h8.99c2.83,0,4.47,1.42,4.92,4.24l1.7,26.12Zm.68,101.59c3.28,4.86,6.7,8.96,10.26,12.3,3.56,3.34,7.32,6.05,11.28,8.14,3.96,2.09,8.17,3.59,12.64,4.49,4.47.91,9.19,1.36,14.17,1.36,9.95,0,18.67-1.81,26.13-5.43,7.47-3.62,13.72-8.73,18.75-15.35,5.03-6.61,8.82-14.53,11.37-23.74,2.55-9.21,3.82-19.36,3.82-30.44,0-25.1-4.64-43.56-13.91-55.37-9.28-11.81-22.57-17.72-39.87-17.72-11.2,0-21.32,2.88-30.37,8.65-9.05,5.77-17.14,13.8-24.26,24.08v89.04Z"/><path d="m4259.8,221.59c7.47-10.18,16.21-18.26,26.22-24.25,10.01-5.99,21.24-8.99,33.68-8.99,20.7,0,36.85,7.18,48.44,21.54,11.59,14.36,17.39,35.9,17.39,64.62,0,12.33-1.61,23.83-4.84,34.51s-7.97,19.96-14.25,27.81c-6.28,7.86-13.97,14.05-23.08,18.57-9.11,4.52-19.6,6.78-31.48,6.78s-21.32-2.09-29.69-6.28-15.61-10.35-21.72-18.49v82.26h-16.29v-228.45h8.99c2.83,0,4.47,1.42,4.92,4.24l1.7,26.12Zm.68,101.59c3.28,4.86,6.7,8.96,10.26,12.3,3.56,3.34,7.32,6.05,11.28,8.14,3.96,2.09,8.17,3.59,12.64,4.49,4.47.91,9.19,1.36,14.17,1.36,9.95,0,18.67-1.81,26.13-5.43,7.47-3.62,13.72-8.73,18.75-15.35,5.03-6.61,8.82-14.53,11.37-23.74,2.55-9.21,3.82-19.36,3.82-30.44,0-25.1-4.64-43.56-13.91-55.37-9.28-11.81-22.57-17.72-39.87-17.72-11.2,0-21.32,2.88-30.37,8.65-9.05,5.77-17.14,13.8-24.26,24.08v89.04Z"/><path d="m4432.74,268.91v3.22c0,12.66,1.47,23.8,4.41,33.41,2.94,9.61,7.13,17.67,12.56,24.17,5.43,6.5,11.99,11.39,19.68,14.67,7.69,3.28,16.29,4.92,25.79,4.92,8.48,0,15.84-.93,22.06-2.8,6.22-1.87,11.45-3.96,15.7-6.28,4.24-2.32,7.61-4.41,10.1-6.27,2.49-1.87,4.3-2.8,5.43-2.8,1.47,0,2.6.57,3.39,1.7l4.41,5.43c-2.72,3.39-6.31,6.56-10.77,9.5-4.47,2.94-9.45,5.46-14.93,7.55-5.49,2.09-11.37,3.76-17.65,5-6.28,1.24-12.59,1.87-18.92,1.87-11.54,0-22.06-2.01-31.56-6.02-9.5-4.01-17.65-9.86-24.43-17.55-6.79-7.69-12.02-17.1-15.7-28.24-3.68-11.13-5.51-23.88-5.51-38.24,0-12.1,1.72-23.26,5.17-33.5,3.45-10.23,8.43-19.05,14.93-26.46,6.5-7.4,14.48-13.2,23.93-17.38,9.44-4.18,20.16-6.28,32.15-6.28,9.5,0,18.33,1.64,26.47,4.92,8.14,3.28,15.21,8.06,21.21,14.33,6,6.28,10.72,13.99,14.17,23.15,3.45,9.16,5.17,19.67,5.17,31.55,0,2.49-.34,4.18-1.02,5.09-.68.91-1.81,1.36-3.39,1.36h-122.85Zm112.67-10.35c0-9.04-1.27-17.16-3.82-24.34-2.55-7.18-6.14-13.25-10.77-18.23-4.64-4.97-10.16-8.79-16.55-11.45-6.39-2.66-13.43-3.99-21.13-3.99-8.71,0-16.52,1.36-23.42,4.07s-12.87,6.61-17.9,11.7c-5.03,5.09-9.08,11.19-12.13,18.32-3.05,7.12-5.09,15.09-6.11,23.91h111.82Z"/><polygon class="cls-1" points="720 160 520 160 680 0 880 0 720 160"/></g></svg>